<?xml version="1.0" encoding="utf-8"?>
<!-- Generator: Adobe Illustrator 18.1.1, SVG Export Plug-In . SVG Version: 6.00 Build 0)  -->
<svg version="1.1" id="图层_1" xmlns="http://www.w3.org/2000/svg" xmlns:xlink="http://www.w3.org/1999/xlink" x="0px" y="0px"
	 viewBox="0 0 841.9 1190.6" enable-background="new 0 0 841.9 1190.6" xml:space="preserve">
<g id="DJNC">
	
		<line id="DJNC01-1" fill="none" stroke="#B4B3B3" stroke-width="20" stroke-miterlimit="10" x1="644.8" y1="336.2" x2="763" y2="336.2"/>
	
		<line id="DJNC02-1" fill="none" stroke="#B4B3B3" stroke-width="20" stroke-miterlimit="10" x1="444.3" y1="336.2" x2="563" y2="336.2"/>
	
		<line id="DJNC03-1" fill="none" stroke="#B4B3B3" stroke-width="20" stroke-miterlimit="10" x1="647.4" y1="407.8" x2="765.5" y2="407.8"/>
	
		<line id="DJNC04-1" fill="none" stroke="#B4B3B3" stroke-width="20" stroke-miterlimit="10" x1="446.9" y1="407.8" x2="565.5" y2="407.8"/>
	
		<line id="DJNC13-1" fill="none" stroke="#B4B3B3" stroke-width="20" stroke-miterlimit="10" x1="204.6" y1="407.8" x2="439.9" y2="407.8"/>
	
		<line id="DJNC18-1" fill="none" stroke="#B4B3B3" stroke-width="20" stroke-miterlimit="10" x1="107.4" y1="657.8" x2="439.3" y2="657.8"/>
	
		<line id="DJNC11-1" fill="none" stroke="#B4B3B3" stroke-width="20" stroke-miterlimit="10" x1="364.8" y1="336.2" x2="437.3" y2="336.2"/>
	
		<line id="DJNC23-1" fill="none" stroke="#B4B3B3" stroke-width="20" stroke-miterlimit="10" x1="183.6" y1="365.2" x2="183.6" y2="510.9"/>
	
		<line id="DJNC25-1" fill="none" stroke="#B4B3B3" stroke-width="20" stroke-miterlimit="10" x1="183.2" y1="558" x2="183.2" y2="643.6"/>
	
		<line id="DJNC19-1" fill="none" stroke="#B4B3B3" stroke-width="20" stroke-miterlimit="10" x1="311.6" y1="422.7" x2="311.6" y2="510.9"/>
	
		<line id="DJNC21-1" fill="none" stroke="#B4B3B3" stroke-width="20" stroke-miterlimit="10" x1="311.2" y1="558" x2="311.2" y2="643.6"/>
	
		<line id="DJNC17-1" fill="none" stroke="#B4B3B3" stroke-width="20" stroke-miterlimit="10" x1="348.2" y1="672.3" x2="348.2" y2="792.2"/>
	
		<line id="DJNC16-1" fill="none" stroke="#B4B3B3" stroke-width="20" stroke-miterlimit="10" x1="348.2" y1="793.6" x2="348.2" y2="968.9"/>
	
		<line id="DJNC24-1" fill="none" stroke="#B4B3B3" stroke-width="20" stroke-miterlimit="10" x1="183.6" y1="517.1" x2="183.6" y2="552.6"/>
	
		<line id="DJNC20-1" fill="none" stroke="#B4B3B3" stroke-width="20" stroke-miterlimit="10" x1="311.2" y1="517.1" x2="311.2" y2="552.6"/>
	
		<line id="DJNC22-1" fill="none" stroke="#B4B3B3" stroke-width="20" stroke-miterlimit="10" x1="183.6" y1="270.9" x2="183.6" y2="358.1"/>
	
		<line id="DJNC26-1" fill="none" stroke="#B4B3B3" stroke-width="20" stroke-miterlimit="10" x1="90" y1="644.1" x2="90" y2="782.4"/>
	<line id="DJNC27-1" fill="none" stroke="#B4B3B3" stroke-width="20" stroke-miterlimit="10" x1="90" y1="787" x2="90" y2="925.1"/>
	
		<line id="DJNC12-1" fill="none" stroke="#B4B3B3" stroke-width="20" stroke-miterlimit="10" x1="350.6" y1="314.5" x2="350.6" y2="392.9"/>
	<text transform="matrix(0.8524 0 0 1 338.8916 353.696)" font-family="'MicrosoftYaHei'" font-size="22.7441">04</text>
	<text transform="matrix(0.8524 0 0 1 400.4341 347.2726)" font-family="'MicrosoftYaHei'" font-size="22.7441">03</text>
	<text transform="matrix(0.8524 0 0 1 481.6914 347.5598)" font-family="'MicrosoftYaHei'" font-size="22.7441">02</text>
	<text transform="matrix(0.8524 0 0 1 680.3222 347.2726)" font-family="'MicrosoftYaHei'" font-size="22.7441">01</text>
	
		<line id="DJNC07-1" fill="none" stroke="#B4B3B3" stroke-width="20" stroke-miterlimit="10" x1="645.3" y1="828.8" x2="763.4" y2="828.8"/>
	
		<line id="DJNC08-1" fill="none" stroke="#B4B3B3" stroke-width="20" stroke-miterlimit="10" x1="444.9" y1="828.8" x2="563.5" y2="828.8"/>
	
		<line id="DJNC15-1" fill="none" stroke="#B4B3B3" stroke-width="20" stroke-miterlimit="10" x1="365.4" y1="828.8" x2="437.7" y2="828.8"/>
	<text transform="matrix(0.8524 0 0 1 482.1729 840.1896)" font-family="'MicrosoftYaHei'" font-size="22.7441">02</text>
	<text transform="matrix(0.8524 0 0 1 680.8027 839.9016)" font-family="'MicrosoftYaHei'" font-size="22.7441">01</text>
	
		<line id="DJNC09-1" fill="none" stroke="#B4B3B3" stroke-width="20" stroke-miterlimit="10" x1="645.1" y1="942.2" x2="763.3" y2="942.2"/>
	
		<line id="DJNC10-1" fill="none" stroke="#B4B3B3" stroke-width="20" stroke-miterlimit="10" x1="444.7" y1="942.2" x2="563.4" y2="942.2"/>
	
		<line id="DJNC14-1" fill="none" stroke="#B4B3B3" stroke-width="20" stroke-miterlimit="10" x1="365.2" y1="942.2" x2="437.6" y2="942.2"/>
	<text transform="matrix(0.8524 0 0 1 482.0146 953.4787)" font-family="'MicrosoftYaHei'" font-size="22.7441">02</text>
	<text transform="matrix(0.8524 0 0 1 680.6465 953.1926)" font-family="'MicrosoftYaHei'" font-size="22.7441">01</text>
	<text transform="matrix(0.8524 0 0 1 485.1015 415.7849)" font-family="'MicrosoftYaHei'" font-size="22.7441">02</text>
	<text transform="matrix(0.8524 0 0 1 683.7324 415.4973)" font-family="'MicrosoftYaHei'" font-size="22.7441">01</text>
	
		<line id="DJNC05-1" fill="none" stroke="#B4B3B3" stroke-width="20" stroke-miterlimit="10" x1="646.9" y1="657.8" x2="765.1" y2="657.8"/>
	
		<line id="DJNC06-1" fill="none" stroke="#B4B3B3" stroke-width="20" stroke-miterlimit="10" x1="446.5" y1="657.8" x2="565.1" y2="657.8"/>
	<text transform="matrix(0.8524 0 0 1 484.6846 665.6872)" font-family="'MicrosoftYaHei'" font-size="22.7441">02</text>
	<text transform="matrix(0.8524 0 0 1 683.3154 665.3976)" font-family="'MicrosoftYaHei'" font-size="22.7441">01</text>
	<text transform="matrix(0.8524 0 0 1 381.6367 415.6408)" font-family="'MicrosoftYaHei'" font-size="22.7441">05</text>
	<text transform="matrix(0.8524 0 0 1 166.5625 333.4128)" font-family="'MicrosoftYaHei'" font-size="22.7441">06</text>
	<text transform="matrix(0.8524 0 0 1 173.2861 463.3415)" font-family="'MicrosoftYaHei'" font-size="22.7441">07</text>
	<text transform="matrix(0.8524 0 0 1 174.1479 548.7424)" font-family="'MicrosoftYaHei'" font-size="22.7441">08</text>
	<text transform="matrix(0.8524 0 0 1 167.0063 593.0134)" font-family="'MicrosoftYaHei'" font-size="22.7441">09</text>
	<text transform="matrix(0.8524 0 0 1 295.8662 463.6296)" font-family="'MicrosoftYaHei'" font-size="22.7441">10</text>
	<text transform="matrix(0.8524 0 0 1 304.2226 540.4577)" font-family="'MicrosoftYaHei'" font-size="22.7441">11</text>
	<text transform="matrix(0.8524 0 0 1 293.9941 624.3727)" font-family="'MicrosoftYaHei'" font-size="22.7441">12</text>
	<text transform="matrix(0.8524 0 0 1 306.2285 664.4675)" font-family="'MicrosoftYaHei'" font-size="22.7441">13 </text>
	<text transform="matrix(0.8524 0 0 1 76.9004 736.3674)" font-family="'MicrosoftYaHei'" font-size="22.7441">14 </text>
	<text transform="matrix(0.8524 0 0 1 76.9014 863.5226)" font-family="'MicrosoftYaHei'" font-size="22.7441">15 </text>
	<text transform="matrix(0.8524 0 0 1 405.4648 953.7687)" font-family="'MicrosoftYaHei'" font-size="22.7441">16 </text>
	<text transform="matrix(0.8524 0 0 1 401.5483 835.7551)" font-family="'MicrosoftYaHei'" font-size="22.7441">17 </text>
	<text transform="matrix(0.8524 0 0 1 338.4746 936.1887)" font-family="'MicrosoftYaHei'" font-size="22.7441">18</text>
	<text transform="matrix(0.8524 0 0 1 336.4683 760.6819)" font-family="'MicrosoftYaHei'" font-size="22.7441">19 </text>
	<text transform="matrix(1 0 0 1 513.8037 274.7219)" font-family="'MicrosoftYaHei'" font-size="59.9975">DJNC</text>
</g>
</svg>
