<?xml version="1.0" encoding="utf-8"?>
<!-- Generator: Adobe Illustrator 18.1.1, SVG Export Plug-In . SVG Version: 6.00 Build 0)  -->
<svg version="1.1" id="图层_1" name="2ZA" xmlns="http://www.w3.org/2000/svg" xmlns:xlink="http://www.w3.org/1999/xlink" x="0px" y="0px"
	 viewBox="0 0 1190.6 841.9" enable-background="new 0 0 1190.6 841.9" xml:space="preserve">
<line id="SCANER01" fill="none" stroke="#B3B3B3" stroke-width="40" stroke-miterlimit="10" x1="478" y1="262.3" x2="536" y2="262.3"/>
<line id="BL01" fill="none" stroke="#B3B3B3" stroke-width="30" stroke-miterlimit="10" x1="622.7" y1="262.3" x2="653" y2="262.3"/>
<line id="BL02" fill="none" stroke="#B3B3B3" stroke-width="30" stroke-miterlimit="10" x1="732.4" y1="262.9" x2="762.7" y2="262.9"/>
<line id="BL03" fill="none" stroke="#B3B3B3" stroke-width="30" stroke-miterlimit="10" x1="843.6" y1="262.9" x2="873.9" y2="262.9"/>
<line id="BL04" fill="none" stroke="#B3B3B3" stroke-width="30" stroke-miterlimit="10" x1="955.3" y1="263.1" x2="985.6" y2="263.1"/>
<line id="BL05" fill="none" stroke="#B3B3B3" stroke-width="30" stroke-miterlimit="10" x1="1070.7" y1="263.6" x2="1101" y2="263.6"/>
<text transform="matrix(1 0 0 1 996.5127 76.6058)" font-family="'MicrosoftYaHei'" font-size="59.955">ZA</text>
<text transform="matrix(1 0 0 1 493.4971 311.2811)" font-family="'MicrosoftYaHei'" font-size="23.982">DWS</text>
<line id="JT02" fill="none" stroke="#B3B3B3" stroke-width="25" stroke-miterlimit="10" x1="219.4" y1="396.9" x2="219.4" y2="373.6"/>
<line id="JT03" fill="none" stroke="#B3B3B3" stroke-width="25" stroke-miterlimit="10" x1="207.2" y1="313.9" x2="207.2" y2="290.6"/>
<line id="JT04" fill="none" stroke="#B3B3B3" stroke-width="25" stroke-miterlimit="10" x1="215.6" y1="146.6" x2="215.6" y2="123.2"/>
<line id="JT05" fill="none" stroke="#B3B3B3" stroke-width="25" stroke-miterlimit="10" x1="361" y1="392.2" x2="361" y2="368.9"/>
<line id="JT06" fill="none" stroke="#B3B3B3" stroke-width="25" stroke-miterlimit="10" x1="173.2" y1="314" x2="173.2" y2="290.6"/>
<line id="SEN01" fill="none" stroke="#B3B3B3" stroke-width="10" stroke-miterlimit="10" x1="462" y1="231" x2="462" y2="297.6"/>
<line id="SEN02" fill="none" stroke="#B3B3B3" stroke-width="10" stroke-miterlimit="10" x1="607" y1="231" x2="607" y2="297.6"/>
<line id="SEN03" fill="none" stroke="#B3B3B3" stroke-width="10" stroke-miterlimit="10" x1="722" y1="231" x2="722" y2="297.6"/>
<line id="SEN04" fill="none" stroke="#B3B3B3" stroke-width="10" stroke-miterlimit="10" x1="833" y1="232" x2="833" y2="298.6"/>
<line id="SEN05" fill="none" stroke="#B3B3B3" stroke-width="10" stroke-miterlimit="10" x1="944" y1="229.5" x2="944" y2="296.1"/>
<line id="SEN06" fill="none" stroke="#B3B3B3" stroke-width="10" stroke-miterlimit="10" x1="1058" y1="231" x2="1058" y2="297.6"/>
<line id="SEN07" fill="none" stroke="#B3B3B3" stroke-width="10" stroke-miterlimit="10" x1="1145" y1="230.3" x2="1145" y2="296.9"/>
<line id="HUACAO01" fill="none" stroke="#B3B3B3" stroke-width="30" stroke-miterlimit="10" x1="637.9" y1="243.5" x2="637.9" y2="186.8"/>
<line id="HUACAO02" fill="none" stroke="#B3B3B3" stroke-width="30" stroke-miterlimit="10" x1="637.9" y1="337.2" x2="637.9" y2="280.6"/>
<line id="HUACAO03" fill="none" stroke="#B3B3B3" stroke-width="30" stroke-miterlimit="10" x1="747.5" y1="243.5" x2="747.5" y2="186.8"/>
<line id="HUACAO04" fill="none" stroke="#B3B3B3" stroke-width="30" stroke-miterlimit="10" x1="747.5" y1="337.2" x2="747.5" y2="280.6"/>
<line id="HUACAO05" fill="none" stroke="#B3B3B3" stroke-width="30" stroke-miterlimit="10" x1="858.7" y1="244.4" x2="858.7" y2="187.8"/>
<line id="ZA12" fill="none" stroke="#B3B3B3" stroke-width="20" stroke-miterlimit="10" x1="567.2" y1="262.1" x2="536.9" y2="262.1"/>
<line id="JT07" fill="none" stroke="#B3B3B3" stroke-width="25" stroke-miterlimit="10" x1="342.8" y1="226.8" x2="342.8" y2="203.5"/>
<line id="JT08" fill="none" stroke="#B3B3B3" stroke-width="25" stroke-miterlimit="10" x1="685.4" y1="230.8" x2="685.4" y2="207.5"/>
<line id="JT09" fill="none" stroke="#B3B3B3" stroke-width="25" stroke-miterlimit="10" x1="680.4" y1="311.9" x2="680.4" y2="288.5"/>
<line id="JT10" fill="none" stroke="#B3B3B3" stroke-width="25" stroke-miterlimit="10" x1="803" y1="238.4" x2="803" y2="215.1"/>
<line id="JT11" fill="none" stroke="#B3B3B3" stroke-width="25" stroke-miterlimit="10" x1="803" y1="307.1" x2="803" y2="283.7"/>
<line id="JT13" fill="none" stroke="#B3B3B3" stroke-width="25" stroke-miterlimit="10" x1="1015.8" y1="311.9" x2="1015.8" y2="288.6"/>
<line id="JT12" fill="none" stroke="#B3B3B3" stroke-width="25" stroke-miterlimit="10" x1="1015.8" y1="231.9" x2="1015.8" y2="208.6"/>
<ellipse id="JT01" fill="none" stroke="#B3B3B3" stroke-width="16" stroke-miterlimit="10" cx="531.8" cy="397.9" rx="6" ry="2.7"/>
<ellipse id="BUTTON05" fill="none" stroke="#B3B3B3" stroke-width="16" stroke-miterlimit="10" cx="486.3" cy="397.7" rx="6" ry="2.7"/>
<line id="ZA01" fill="none" stroke="#B3B3B3" stroke-width="20" stroke-miterlimit="10" x1="245.9" y1="300.2" x2="245.9" y2="182.8"/>
<line id="ZA02" fill="none" stroke="#B3B3B3" stroke-width="30" stroke-miterlimit="10" x1="245.7" y1="181.1" x2="245.7" y2="150.8"/>
<line id="ZA03" fill="none" stroke="#B3B3B3" stroke-width="20" stroke-miterlimit="10" x1="348" y1="166" x2="261.4" y2="166"/>
<path id="ZA06" fill="none" stroke="#ABABAB" stroke-width="20" stroke-miterlimit="10" d="M371.9,322.3c0,12.2-12.5,22.2-27.7,22.2
	"/>
<line id="ZA05" fill="none" stroke="#B3B3B3" stroke-width="20" stroke-miterlimit="10" x1="371.9" y1="321.3" x2="371.9" y2="194.9"/>
<path id="ZA04" fill="none" stroke="#ABABAB" stroke-width="20" stroke-miterlimit="10" d="M349.9,166.1c12.2,0,22.2,12.5,22.2,27.7
	"/>
<line id="ZA07" fill="none" stroke="#B3B3B3" stroke-width="20" stroke-miterlimit="10" x1="342.8" y1="344.1" x2="110.6" y2="344.1"/>
<line id="DJFL01" fill="none" stroke="#B3B3B3" stroke-width="40" stroke-miterlimit="10" x1="348.8" y1="262.1" x2="120" y2="262.1"/>
<line id="ZA10" fill="none" stroke="#B3B3B3" stroke-width="20" stroke-miterlimit="10" x1="419.1" y1="262.1" x2="348.8" y2="262.1"/>
<line id="ZA11" fill="none" stroke="#B3B3B3" stroke-width="20" stroke-miterlimit="10" x1="477" y1="262.1" x2="420.5" y2="262.1"/>
<line id="ZA13" fill="none" stroke="#B3B3B3" stroke-width="20" stroke-miterlimit="10" x1="621" y1="262.1" x2="568.5" y2="262.1"/>
<line id="ZA14" fill="none" stroke="#B3B3B3" stroke-width="20" stroke-miterlimit="10" x1="731" y1="263" x2="655" y2="263"/>
<line id="ZA15" fill="none" stroke="#B3B3B3" stroke-width="20" stroke-miterlimit="10" x1="842" y1="263.1" x2="764" y2="263.1"/>
<line id="ZA16" fill="none" stroke="#B3B3B3" stroke-width="20" stroke-miterlimit="10" x1="953" y1="263.1" x2="874.8" y2="263.1"/>
<line id="ZA17" fill="none" stroke="#B3B3B3" stroke-width="20" stroke-miterlimit="10" x1="1069" y1="263.1" x2="987.6" y2="263.1"/>
<line id="ZA18" fill="none" stroke="#B3B3B3" stroke-width="20" stroke-miterlimit="10" x1="1154" y1="263.1" x2="1102.5" y2="263.1"/>
<text transform="matrix(1 0 0 1 672.3271 269.2904)" font-family="'MicrosoftYaHei'" font-size="17.984">19</text>
<text transform="matrix(1 0 0 1 793.4277 270.3929)" font-family="'MicrosoftYaHei'" font-size="17.984">20</text>
<text transform="matrix(1 0 0 1 236.8174 220.2552)" font-family="'MicrosoftYaHei'" font-size="17.984">01</text>
<text transform="matrix(1 0 0 1 236.5649 174.4149)" font-family="'MicrosoftYaHei'" font-size="17.984">02</text>
<text transform="matrix(1 0 0 1 290.395 172.5477)" font-family="'MicrosoftYaHei'" font-size="17.984">03</text>
<text transform="matrix(1 0 0 1 353.7173 179.9574)" font-family="'MicrosoftYaHei'" font-size="17.984">04</text>
<text transform="matrix(1 0 0 1 360.9824 220.2552)" font-family="'MicrosoftYaHei'" font-size="17.984">05</text>
<text transform="matrix(1 0 0 1 353.7178 342.0765)" font-family="'MicrosoftYaHei'" font-size="17.984">06</text>
<text transform="matrix(1 0 0 1 261.4028 346.6717)" font-family="'MicrosoftYaHei'" font-size="17.984">07</text>
<text transform="matrix(1 0 0 1 393.373 268.2899)" font-family="'MicrosoftYaHei'" font-size="17.984">14</text>
<text transform="matrix(1 0 0 1 424.4688 268.2899)" font-family="'MicrosoftYaHei'" font-size="17.984">15</text>
<text transform="matrix(1 0 0 1 576.2554 268.2904)" font-family="'MicrosoftYaHei'" font-size="17.984">18</text>
<text transform="matrix(1 0 0 1 894.7227 269.1053)" font-family="'MicrosoftYaHei'" font-size="17.984">21</text>
<text transform="matrix(1 0 0 1 1022.2471 270.2899)" font-family="'MicrosoftYaHei'" font-size="17.984">22</text>
<text transform="matrix(1 0 0 1 1108.623 273.2889)" font-family="'MicrosoftYaHei'" font-size="17.984">23</text>
<line id="ZX00" fill="none" stroke="#B3B3B3" stroke-width="25" stroke-miterlimit="10" x1="70.3" y1="32.4" x2="46.9" y2="32.4"/>
<line id="FJMODE" fill="none" stroke="#B3B3B3" stroke-width="25" stroke-miterlimit="10" x1="320.9" y1="32.4" x2="297.5" y2="32.4"/>
<line id="BLOCKABLE" fill="none" stroke="#B3B3B3" stroke-width="25" stroke-miterlimit="10" x1="231.6" y1="32.4" x2="208.3" y2="32.4"/>
<line id="SLEEPABLE" fill="none" stroke="#B3B3B3" stroke-width="25" stroke-miterlimit="10" x1="153" y1="32.4" x2="129.6" y2="32.4"/>
<text transform="matrix(1 0 0 1 105.5454 66.0931)" font-family="'MicrosoftYaHei'" font-size="17.9928">休眠功能</text>
<text transform="matrix(1 0 0 1 22.5742 66.0931)" font-family="'MicrosoftYaHei'" font-size="17.9928">整线状态</text>
<text transform="matrix(1 0 0 1 186.3135 66.0931)" font-family="'MicrosoftYaHei'" font-size="17.9928">堵塞功能</text>
<text transform="matrix(1 0 0 1 271.3115 66.0931)" font-family="'MicrosoftYaHei'" font-size="17.9928">分拣模式</text>
<line id="BIAODING" fill="none" stroke="#B3B3B3" stroke-width="25" stroke-miterlimit="10" x1="405.8" y1="33.4" x2="382.4" y2="33.4"/>
<text transform="matrix(1 0 0 1 356.8862 66.0931)" font-family="'MicrosoftYaHei'" font-size="17.9928">标定模式</text>
<text transform="matrix(1 0 0 1 245.4409 268.2899)" font-family="'MicrosoftYaHei'" font-size="17.9968">单间分离</text>
<path id="ZA09" fill="none" stroke="#ABABAB" stroke-width="20" stroke-miterlimit="10" d="M88.6,303.6c0-22.4,12.5-40.8,27.7-40.8"
	/>
<path id="ZA08" fill="none" stroke="#ABABAB" stroke-width="20" stroke-miterlimit="10" d="M109.6,343.9
	c-11.5,0-20.9-17.3-20.9-38.3"/>
<text transform="matrix(1 0 0 1 81.8945 288.5858)" font-family="'MicrosoftYaHei'" font-size="17.984">09</text>
<text transform="matrix(1 0 0 1 81.8945 333.3763)" font-family="'MicrosoftYaHei'" font-size="17.984">08</text>
<line id="HUACAO06" fill="none" stroke="#B3B3B3" stroke-width="30" stroke-miterlimit="10" x1="858.7" y1="337.2" x2="858.7" y2="280.6"/>
<line id="HUACAO07" fill="none" stroke="#B3B3B3" stroke-width="30" stroke-miterlimit="10" x1="970.4" y1="245.5" x2="970.4" y2="188.9"/>
<line id="HUACAO08" fill="none" stroke="#B3B3B3" stroke-width="30" stroke-miterlimit="10" x1="970" y1="336.6" x2="970" y2="280"/>
<line id="HUACAO09" fill="none" stroke="#B3B3B3" stroke-width="30" stroke-miterlimit="10" x1="1085.8" y1="246.6" x2="1085.8" y2="190"/>
<line id="HUACAO10" fill="none" stroke="#B3B3B3" stroke-width="30" stroke-miterlimit="10" x1="1085.8" y1="337.2" x2="1085.8" y2="280.6"/>
<line id="JT14" fill="none" stroke="#B3B3B3" stroke-width="25" stroke-miterlimit="10" x1="643.8" y1="396.5" x2="643.8" y2="373.2"/>
<line id="JT15" fill="none" stroke="#B3B3B3" stroke-width="25" stroke-miterlimit="10" x1="745" y1="394.2" x2="745" y2="370.9"/>
<line id="JT16" fill="none" stroke="#B3B3B3" stroke-width="25" stroke-miterlimit="10" x1="852.2" y1="396.5" x2="852.2" y2="373.2"/>
<line id="JT17" fill="none" stroke="#B3B3B3" stroke-width="25" stroke-miterlimit="10" x1="969.4" y1="395.5" x2="969.4" y2="372.2"/>
<line id="JT18" fill="none" stroke="#B3B3B3" stroke-width="25" stroke-miterlimit="10" x1="1088.5" y1="395.5" x2="1088.5" y2="372.2"/>
<text transform="matrix(1 0 0 1 537.7549 268.2904)" font-family="'MicrosoftYaHei'" font-size="17.984">17</text>
<text transform="matrix(1 0 0 1 443.7763 425.2162)" font-family="'MicrosoftYaHei'" font-size="13.9952">分拣模式</text>
<text transform="matrix(1 0 0 1 504.9863 425.2181)" font-family="'MicrosoftYaHei'" font-size="13.9952">主柜急停01</text>
<text transform="matrix(1 0 0 1 192.5934 409.8455)" font-family="'MicrosoftYaHei'" font-size="13.9952">急停02</text>
<text transform="matrix(1 0 0 1 192.5935 324.749)" font-family="'MicrosoftYaHei'" font-size="13.9952">急停03</text>
<text transform="matrix(1 0 0 1 192.5936 118.2181)" font-family="'MicrosoftYaHei'" font-size="13.9952">急停04</text>
<text transform="matrix(1 0 0 1 337.5934 409.2459)" font-family="'MicrosoftYaHei'" font-size="13.9952">急停05</text>
<text transform="matrix(1 0 0 1 144.8867 324.7494)" font-family="'MicrosoftYaHei'" font-size="13.9952">急停06</text>
<text transform="matrix(1 0 0 1 280.441 220.2556)" font-family="'MicrosoftYaHei'" font-size="13.9952">急停07</text>
<text transform="matrix(1 0 0 1 659.5934 203.5045)" font-family="'MicrosoftYaHei'" font-size="13.9952">急停08</text>
<text transform="matrix(1 0 0 1 659.5935 324.7498)" font-family="'MicrosoftYaHei'" font-size="13.9952">急停09</text>
<text transform="matrix(1 0 0 1 769.5934 208.6043)" font-family="'MicrosoftYaHei'" font-size="13.9952">急停10</text>
<text transform="matrix(1 0 0 1 769.5935 322.2995)" font-family="'MicrosoftYaHei'" font-size="13.9952">急停11</text>
<text transform="matrix(1 0 0 1 987.5587 203.5049)" font-family="'MicrosoftYaHei'" font-size="13.9952">急停12</text>
<text transform="matrix(1 0 0 1 985.5587 324.7502)" font-family="'MicrosoftYaHei'" font-size="13.9952">急停13</text>
<text transform="matrix(1 0 0 1 607.73 417.2072)" font-family="'MicrosoftYaHei'" font-size="13.9952">摆轮急停14</text>
<text transform="matrix(1 0 0 1 709.9003 415.5073)" font-family="'MicrosoftYaHei'" font-size="13.9952">摆轮急停15</text>
<text transform="matrix(1 0 0 1 813.6906 417.2072)" font-family="'MicrosoftYaHei'" font-size="13.9952">摆轮急停16</text>
<text transform="matrix(1 0 0 1 936.4742 416.1953)" font-family="'MicrosoftYaHei'" font-size="13.9952">摆轮急停17</text>
<text transform="matrix(1 0 0 1 1052.8054 416.1953)" font-family="'MicrosoftYaHei'" font-size="13.9952">摆轮急停18</text>
<text transform="matrix(1 0 0 1 625.7734 180.0407)" font-family="'MicrosoftYaHei'" font-size="13.9952">滑槽01</text>
<text transform="matrix(1 0 0 1 732.3696 181.1052)" font-family="'MicrosoftYaHei'" font-size="13.9952">滑槽03</text>
<text transform="matrix(1 0 0 1 837.7659 180.0405)" font-family="'MicrosoftYaHei'" font-size="13.9952">滑槽05</text>
<text transform="matrix(1 0 0 1 952.9596 181.1049)" font-family="'MicrosoftYaHei'" font-size="13.9952">滑槽07</text>
<text transform="matrix(1 0 0 1 1068.9553 182.8048)" font-family="'MicrosoftYaHei'" font-size="13.9952">滑槽09</text>
<text transform="matrix(1 0 0 1 620.7195 346.6078)" font-family="'MicrosoftYaHei'" font-size="13.9952">滑槽02</text>
<text transform="matrix(1 0 0 1 732.37 346.7357)" font-family="'MicrosoftYaHei'" font-size="13.9952">滑槽04</text>
<text transform="matrix(1 0 0 1 841.9647 344.4983)" font-family="'MicrosoftYaHei'" font-size="13.9952">滑槽06</text>
<text transform="matrix(1 0 0 1 952.9599 346.7355)" font-family="'MicrosoftYaHei'" font-size="13.9952">滑槽08</text>
<text transform="matrix(1 0 0 1 1068.9554 346.7354)" font-family="'MicrosoftYaHei'" font-size="13.9952">滑槽10</text>
<text transform="matrix(1 0 0 1 443.7766 226.7531)" font-family="'MicrosoftYaHei'" font-size="13.9952">PH13</text>
<text transform="matrix(1 0 0 1 580.7766 226.803)" font-family="'MicrosoftYaHei'" font-size="13.9952">PH14</text>
<text transform="matrix(1 0 0 1 913.8618 226.803)" font-family="'MicrosoftYaHei'" font-size="13.9952">PH17</text>
<text transform="matrix(1 0 0 1 1032.7766 226.803)" font-family="'MicrosoftYaHei'" font-size="13.9952">PH18</text>
<text transform="matrix(1 0 0 1 1120.7766 226.803)" font-family="'MicrosoftYaHei'" font-size="13.9952">PH19</text>
<text transform="matrix(1 0 0 1 615.7728 265.3014)" font-family="'MicrosoftYaHei'" font-size="13.9952">摆轮01</text>
<text transform="matrix(1 0 0 1 727.4408 267.296)" font-family="'MicrosoftYaHei'" font-size="13.9952">摆轮02</text>
</svg>
