<?xml version="1.0" encoding="utf-8"?>
<!-- Generator: Adobe Illustrator 18.1.1, SVG Export Plug-In . SVG Version: 6.00 Build 0)  -->
<svg version="1.1" id="图层_1" name="2ZB" xmlns="http://www.w3.org/2000/svg" xmlns:xlink="http://www.w3.org/1999/xlink" x="0px" y="0px"
	 viewBox="0 0 1190.6 841.9" enable-background="new 0 0 1190.6 841.9" xml:space="preserve">
<line id="SCANER01" fill="none" stroke="#B3B3B3" stroke-width="40" stroke-miterlimit="10" x1="349.6" y1="332.4" x2="410" y2="332.4"/>
<path id="ZB07" fill="none" stroke="#ABABAB" stroke-width="20" stroke-miterlimit="10" d="M70.6,274.6c0-34.9,19-63.6,42.1-63.6
	"/>
<line id="BL01" fill="none" stroke="#B3B3B3" stroke-width="30" stroke-miterlimit="10" x1="517.8" y1="333.4" x2="548.1" y2="333.4"/>
<line id="BL02" fill="none" stroke="#B3B3B3" stroke-width="30" stroke-miterlimit="10" x1="683.5" y1="334" x2="713.8" y2="334"/>
<line id="BL03" fill="none" stroke="#B3B3B3" stroke-width="30" stroke-miterlimit="10" x1="777.7" y1="334" x2="808" y2="334"/>
<line id="BL04" fill="none" stroke="#B3B3B3" stroke-width="30" stroke-miterlimit="10" x1="963.3" y1="334.2" x2="993.6" y2="334.2"/>
<line id="BL05" fill="none" stroke="#B3B3B3" stroke-width="30" stroke-miterlimit="10" x1="1074.7" y1="334.7" x2="1105" y2="334.7"/>
<text transform="matrix(1 0 0 1 879.1338 90.6537)" font-family="'MicrosoftYaHei'" font-size="59.94">ZB</text>
<text transform="matrix(1 0 0 1 349.5396 375.0843)" font-family="'MicrosoftYaHei'" font-size="23.976">DWS</text>
<line id="JT02" fill="none" stroke="#B3B3B3" stroke-width="25" stroke-miterlimit="10" x1="213.9" y1="256.4" x2="213.9" y2="233.1"/>
<line id="JT03" fill="none" stroke="#B3B3B3" stroke-width="25" stroke-miterlimit="10" x1="145.3" y1="300.4" x2="145.3" y2="277.1"/>
<line id="JT04" fill="none" stroke="#B3B3B3" stroke-width="25" stroke-miterlimit="10" x1="342.7" y1="184.4" x2="342.7" y2="161"/>
<line id="JT05" fill="none" stroke="#B3B3B3" stroke-width="25" stroke-miterlimit="10" x1="92" y1="196" x2="92" y2="172.7"/>
<line id="JT08" fill="none" stroke="#B3B3B3" stroke-width="25" stroke-miterlimit="10" x1="729.8" y1="309" x2="729.8" y2="285.6"/>
<line id="SEN01" fill="none" stroke="#B3B3B3" stroke-width="5" stroke-miterlimit="10" x1="339.8" y1="304.1" x2="339.8" y2="370.7"/>
<line id="SEN02" fill="none" stroke="#B3B3B3" stroke-width="5" stroke-miterlimit="10" x1="511" y1="300.7" x2="511" y2="367.3"/>
<line id="SEN03" fill="none" stroke="#B3B3B3" stroke-width="5" stroke-miterlimit="10" x1="672.3" y1="298.2" x2="672.3" y2="364.8"/>
<line id="SEN04" fill="none" stroke="#B3B3B3" stroke-width="5" stroke-miterlimit="10" x1="771" y1="301.4" x2="771" y2="368"/>
<line id="SEN05" fill="none" stroke="#B3B3B3" stroke-width="5" stroke-miterlimit="10" x1="954.9" y1="300.2" x2="954.9" y2="366.8"/>
<line id="SEN06" fill="none" stroke="#B3B3B3" stroke-width="5" stroke-miterlimit="10" x1="1068" y1="301.4" x2="1068" y2="368"/>
<line id="SEN07" fill="none" stroke="#B3B3B3" stroke-width="5" stroke-miterlimit="10" x1="1159" y1="300.6" x2="1159" y2="367.2"/>
<line id="HUACAO02" fill="none" stroke="#B3B3B3" stroke-width="30" stroke-miterlimit="10" x1="532.9" y1="407.3" x2="532.9" y2="350.6"/>
<line id="HUACAO03" fill="none" stroke="#B3B3B3" stroke-width="30" stroke-miterlimit="10" x1="698.6" y1="316.6" x2="698.6" y2="259.9"/>
<line id="HUACAO04" fill="none" stroke="#B3B3B3" stroke-width="30" stroke-miterlimit="10" x1="698.6" y1="407.3" x2="698.6" y2="350.7"/>
<line id="HUACAO05" fill="none" stroke="#B3B3B3" stroke-width="30" stroke-miterlimit="10" x1="792.8" y1="317" x2="792.8" y2="260.4"/>
<line id="JT09" fill="none" stroke="#B3B3B3" stroke-width="25" stroke-miterlimit="10" x1="730.8" y1="373.3" x2="730.8" y2="350"/>
<line id="JT10" fill="none" stroke="#B3B3B3" stroke-width="25" stroke-miterlimit="10" x1="1015.6" y1="312.3" x2="1015.6" y2="289"/>
<line id="JT11" fill="none" stroke="#B3B3B3" stroke-width="25" stroke-miterlimit="10" x1="1017.1" y1="380.1" x2="1017.1" y2="356.7"/>
<line id="JT12" fill="none" stroke="#B3B3B3" stroke-width="25" stroke-miterlimit="10" x1="534.7" y1="469.6" x2="534.7" y2="446.3"/>
<line id="JT13" fill="none" stroke="#B3B3B3" stroke-width="25" stroke-miterlimit="10" x1="698.6" y1="469.6" x2="698.6" y2="446.2"/>
<line id="JT15" fill="none" stroke="#B3B3B3" stroke-width="25" stroke-miterlimit="10" x1="978.4" y1="470.6" x2="978.4" y2="447.3"/>
<line id="JT14" fill="none" stroke="#B3B3B3" stroke-width="25" stroke-miterlimit="10" x1="792.8" y1="469.6" x2="792.8" y2="446.3"/>
<ellipse id="JT01" fill="none" stroke="#B3B3B3" stroke-width="16" stroke-miterlimit="10" cx="267.8" cy="499.4" rx="6" ry="2.7"/>
<ellipse id="BUTTON05" fill="none" stroke="#B3B3B3" stroke-width="16" stroke-miterlimit="10" cx="222.3" cy="499.2" rx="6" ry="2.7"/>
<text transform="matrix(1 0 0 1 188.0898 524.9379)" font-family="'MicrosoftYaHei'" font-size="13.991">分拣模式</text>
<text transform="matrix(1 0 0 1 249.2822 524.9379)" font-family="'MicrosoftYaHei'" font-size="13.991">主柜急停01</text>
<line id="ZB03" fill="none" stroke="#B3B3B3" stroke-width="20" stroke-miterlimit="10" x1="237" y1="293.8" x2="327.7" y2="293.8"/>
<line id="ZB02" fill="none" stroke="#B3B3B3" stroke-width="20" stroke-miterlimit="10" x1="235" y1="293.8" x2="192.9" y2="293.8"/>
<path id="ZB04" fill="none" stroke="#ABABAB" stroke-width="20" stroke-miterlimit="10" d="M357.2,253.2c0,22.3-12.4,40.5-27.4,40.5
	"/>
<path id="ZB05" fill="none" stroke="#ABABAB" stroke-width="20" stroke-miterlimit="10" d="M327.3,210.6c16.4,0,29.8,18.7,29.8,41.5
	"/>
<path id="ZB08" fill="none" stroke="#ABABAB" stroke-width="20" stroke-miterlimit="10" d="M113.5,332.6
	c-23.6,0-42.9-25.7-42.9-57"/>
<line id="DJFL01" fill="none" stroke="#B3B3B3" stroke-width="40" stroke-miterlimit="10" x1="247.3" y1="333" x2="114.5" y2="333"/>
<line id="ZB10" fill="none" stroke="#B3B3B3" stroke-width="20" stroke-miterlimit="10" x1="347.3" y1="332.4" x2="281.9" y2="332.4"/>
<line id="ZB09" fill="none" stroke="#B3B3B3" stroke-width="20" stroke-miterlimit="10" x1="279.9" y1="332.9" x2="249.3" y2="332.9"/>
<line id="ZB12" fill="none" stroke="#B3B3B3" stroke-width="20" stroke-miterlimit="10" x1="516.4" y1="333.2" x2="449" y2="333.2"/>
<line id="ZB13" fill="none" stroke="#B3B3B3" stroke-width="20" stroke-miterlimit="10" x1="681.9" y1="334.1" x2="549.1" y2="334.1"/>
<line id="ZB14" fill="none" stroke="#B3B3B3" stroke-width="20" stroke-miterlimit="10" x1="776.6" y1="334.2" x2="714.8" y2="334.2"/>
<line id="ZB16" fill="none" stroke="#B3B3B3" stroke-width="20" stroke-miterlimit="10" x1="1074" y1="333.2" x2="994.6" y2="333.2"/>
<line id="ZB15" fill="none" stroke="#B3B3B3" stroke-width="20" stroke-miterlimit="10" x1="960.9" y1="334.4" x2="809.1" y2="334.4"/>
<line id="ZB17" fill="none" stroke="#B3B3B3" stroke-width="20" stroke-miterlimit="10" x1="1167.1" y1="334.2" x2="1107" y2="334.2"/>
<text transform="matrix(1 0 0 1 610.1973 340.3773)" font-family="'MicrosoftYaHei'" font-size="17.9792">18</text>
<text transform="matrix(1 0 0 1 738.2725 341.4799)" font-family="'MicrosoftYaHei'" font-size="17.9792">19</text>
<text transform="matrix(1 0 0 1 205.5645 301.1376)" font-family="'MicrosoftYaHei'" font-size="17.9792">02</text>
<text transform="matrix(1 0 0 1 272.5693 301.1366)" font-family="'MicrosoftYaHei'" font-size="17.9792">03</text>
<text transform="matrix(1 0 0 1 252.2402 339.0858)" font-family="'MicrosoftYaHei'" font-size="17.9792">13</text>
<text transform="matrix(1 0 0 1 471.1572 339.3773)" font-family="'MicrosoftYaHei'" font-size="17.9792">17</text>
<text transform="matrix(1 0 0 1 875.54 340.1927)" font-family="'MicrosoftYaHei'" font-size="17.9792">20</text>
<text transform="matrix(1 0 0 1 1021.793 341.4803)" font-family="'MicrosoftYaHei'" font-size="17.9792">21</text>
<text transform="matrix(1 0 0 1 1123.375 342.3768)" font-family="'MicrosoftYaHei'" font-size="17.9792">22</text>
<line id="ZX00" fill="none" stroke="#B3B3B3" stroke-width="25" stroke-miterlimit="10" x1="81.3" y1="46.4" x2="57.9" y2="46.4"/>
<line id="FJMODE" fill="none" stroke="#B3B3B3" stroke-width="25" stroke-miterlimit="10" x1="331.9" y1="46.4" x2="308.5" y2="46.4"/>
<line id="BLOCKABLE" fill="none" stroke="#B3B3B3" stroke-width="25" stroke-miterlimit="10" x1="242.6" y1="46.4" x2="219.3" y2="46.4"/>
<line id="SLEEPABLE" fill="none" stroke="#B3B3B3" stroke-width="25" stroke-miterlimit="10" x1="164" y1="46.4" x2="140.6" y2="46.4"/>
<text transform="matrix(1 0 0 1 116.5103 80.1458)" font-family="'MicrosoftYaHei'" font-size="17.988">休眠功能</text>
<text transform="matrix(1 0 0 1 33.5596 80.1458)" font-family="'MicrosoftYaHei'" font-size="17.988">整线状态</text>
<text transform="matrix(1 0 0 1 197.2578 80.1458)" font-family="'MicrosoftYaHei'" font-size="17.988">堵塞功能</text>
<text transform="matrix(1 0 0 1 282.2358 80.1458)" font-family="'MicrosoftYaHei'" font-size="17.988">分拣模式</text>
<line id="BIAODING" fill="none" stroke="#B3B3B3" stroke-width="25" stroke-miterlimit="10" x1="416.8" y1="47.4" x2="393.4" y2="47.4"/>
<text transform="matrix(1 0 0 1 367.7886 80.1458)" font-family="'MicrosoftYaHei'" font-size="17.988">标定模式</text>
<text transform="matrix(1 0 0 1 145.2703 340.4026)" font-family="'MicrosoftYaHei'" font-size="17.992">单间分离</text>
<line id="ZB01" fill="none" stroke="#B3B3B3" stroke-width="20" stroke-miterlimit="10" x1="181" y1="304.8" x2="181" y2="235.9"/>
<text transform="matrix(1 0 0 1 335.1934 293.7162)" font-family="'MicrosoftYaHei'" font-size="17.9792">04</text>
<text transform="matrix(1 0 0 1 70.542 314.7899)" font-family="'MicrosoftYaHei'" font-size="17.9792">08</text>
<line id="HUACAO06" fill="none" stroke="#B3B3B3" stroke-width="30" stroke-miterlimit="10" x1="792.8" y1="407.3" x2="792.8" y2="350.7"/>
<line id="ZB11" fill="none" stroke="#B3B3B3" stroke-width="20" stroke-miterlimit="10" x1="447" y1="333.2" x2="411.7" y2="333.2"/>
<text transform="matrix(1 0 0 1 417.6357 339.2787)" font-family="'MicrosoftYaHei'" font-size="17.9792">16</text>
<line id="HUACAO07" fill="none" stroke="#B3B3B3" stroke-width="30" stroke-miterlimit="10" x1="978.4" y1="317" x2="978.4" y2="260.4"/>
<line id="HUACAO08" fill="none" stroke="#B3B3B3" stroke-width="30" stroke-miterlimit="10" x1="978.4" y1="407.3" x2="978.4" y2="350.7"/>
<line id="HUACAO09" fill="none" stroke="#B3B3B3" stroke-width="30" stroke-miterlimit="10" x1="1089.8" y1="317.5" x2="1089.8" y2="260.9"/>
<line id="HUACAO10" fill="none" stroke="#B3B3B3" stroke-width="30" stroke-miterlimit="10" x1="1089.8" y1="408.3" x2="1089.8" y2="351.7"/>
<line id="JT16" fill="none" stroke="#B3B3B3" stroke-width="25" stroke-miterlimit="10" x1="1089.8" y1="470.6" x2="1089.8" y2="447.3"/>
<text transform="matrix(1 0 0 1 228.2903 251.1022)" font-family="'MicrosoftYaHei'" font-size="13.991">急停01</text>
<text transform="matrix(1 0 0 1 114.5103 273.4512)" font-family="'MicrosoftYaHei'" font-size="13.991">急停02</text>
<text transform="matrix(1 0 0 1 321.0817 155.0379)" font-family="'MicrosoftYaHei'" font-size="13.991">急停03</text>
<text transform="matrix(1 0 0 1 70.597 165.681)" font-family="'MicrosoftYaHei'" font-size="13.991">急停04</text>
<text transform="matrix(1 0 0 1 595.2751 285.3096)" font-family="'MicrosoftYaHei'" font-size="13.991">急停05</text>
<text transform="matrix(1 0 0 1 597.4766 392.2955)" font-family="'MicrosoftYaHei'" font-size="13.991">急停06</text>
<text transform="matrix(1 0 0 1 718.7725 278.7079)" font-family="'MicrosoftYaHei'" font-size="13.991">急停07</text>
<text transform="matrix(1 0 0 1 718.7725 387.7821)" font-family="'MicrosoftYaHei'" font-size="13.991">急停08</text>
<text transform="matrix(1 0 0 1 315.9673 385.7821)" font-family="'MicrosoftYaHei'" font-size="13.991">PH11</text>
<text transform="matrix(1 0 0 1 510.8247 422.5941)" font-family="'MicrosoftYaHei'" font-size="13.991">滑槽02</text>
<text transform="matrix(1 0 0 1 674.7783 255.3221)" font-family="'MicrosoftYaHei'" font-size="13.991">滑槽03</text>
<text transform="matrix(1 0 0 1 674.7783 422.4671)" font-family="'MicrosoftYaHei'" font-size="13.991">滑槽04</text>
<text transform="matrix(1 0 0 1 770.7451 253.1937)" font-family="'MicrosoftYaHei'" font-size="13.991">滑槽05</text>
<text transform="matrix(1 0 0 1 770.7451 422.4671)" font-family="'MicrosoftYaHei'" font-size="13.991">滑槽06</text>
<text transform="matrix(1 0 0 1 515.6221 338.2787)" font-family="'MicrosoftYaHei'" font-size="13.991">摆轮01</text>
<text transform="matrix(1 0 0 1 954.6963 253.1937)" font-family="'MicrosoftYaHei'" font-size="13.991">滑槽07</text>
<text transform="matrix(1 0 0 1 954.6963 422.5941)" font-family="'MicrosoftYaHei'" font-size="13.991">滑槽08</text>
<text transform="matrix(1 0 0 1 1073.6553 253.1937)" font-family="'MicrosoftYaHei'" font-size="13.991">滑槽09</text>
<text transform="matrix(1 0 0 1 1067.6602 422.4671)" font-family="'MicrosoftYaHei'" font-size="13.991">滑槽10</text>
<text transform="matrix(1 0 0 1 478.2349 294.2259)" font-family="'MicrosoftYaHei'" font-size="13.991">PH12</text>
<text transform="matrix(1 0 0 1 738.876 297.9071)" font-family="'MicrosoftYaHei'" font-size="13.991">PH14</text>
<text transform="matrix(1 0 0 1 1033.9707 297.9071)" font-family="'MicrosoftYaHei'" font-size="13.991">PH16</text>
<text transform="matrix(1 0 0 1 960.9941 338.2787)" font-family="'MicrosoftYaHei'" font-size="13.991">摆轮04</text>
<text transform="matrix(1 0 0 1 300.248 339.0863)" font-family="'MicrosoftYaHei'" font-size="17.9792">14</text>
<text transform="matrix(1 0 0 1 645.2007 294.2259)" font-family="'MicrosoftYaHei'" font-size="13.991">PH13</text>
<text transform="matrix(1 0 0 1 921.1445 295.2269)" font-family="'MicrosoftYaHei'" font-size="13.991">PH15</text>
<text transform="matrix(1 0 0 1 1141.7236 297.203)" font-family="'MicrosoftYaHei'" font-size="13.991">PH17</text>
<line id="HUACAO01" fill="none" stroke="#B3B3B3" stroke-width="30" stroke-miterlimit="10" x1="533.8" y1="316.6" x2="533.8" y2="259.9"/>
<text transform="matrix(1 0 0 1 509.998 256.3177)" font-family="'MicrosoftYaHei'" font-size="13.991">滑槽01</text>
<text transform="matrix(1 0 0 1 170.7104 277.7079)" font-family="'MicrosoftYaHei'" font-size="17.9792">01</text>
<text transform="matrix(1 0 0 1 496.3022 488.4076)" font-family="'MicrosoftYaHei'" font-size="13.9904">摆轮急停01</text>
<text transform="matrix(1 0 0 1 659.0488 488.4076)" font-family="'MicrosoftYaHei'" font-size="13.9904">摆轮急停02</text>
<text transform="matrix(1 0 0 1 763.1709 488.4076)" font-family="'MicrosoftYaHei'" font-size="13.9904">摆轮急停03</text>
<text transform="matrix(1 0 0 1 944.0938 488.4066)" font-family="'MicrosoftYaHei'" font-size="13.9904">摆轮急停04</text>
<text transform="matrix(1 0 0 1 1058.5068 488.4066)" font-family="'MicrosoftYaHei'" font-size="13.9904">摆轮急停05</text>
<text transform="matrix(1 0 0 1 342.1709 235.9051)" font-family="'MicrosoftYaHei'" font-size="17.9792">05</text>
<text transform="matrix(1 0 0 1 65.542 252.1043)" font-family="'MicrosoftYaHei'" font-size="17.9792">07</text>
<line id="ZB06" fill="none" stroke="#B3B3B3" stroke-width="20" stroke-miterlimit="10" x1="325.3" y1="210.6" x2="114.5" y2="210.6"/>
<text transform="matrix(1 0 0 1 206.5825 215.9061)" font-family="'MicrosoftYaHei'" font-size="17.9792">06</text>
<line id="JT06" fill="none" stroke="#B3B3B3" stroke-width="25" stroke-miterlimit="10" x1="615.5" y1="316.1" x2="615.5" y2="292.7"/>
<line id="JT07" fill="none" stroke="#B3B3B3" stroke-width="25" stroke-miterlimit="10" x1="615.5" y1="375.4" x2="615.5" y2="352"/>
<text transform="matrix(1 0 0 1 995.5607 283.7074)" font-family="'MicrosoftYaHei'" font-size="13.991">急停09</text>
<text transform="matrix(1 0 0 1 998.7725 394.295)" font-family="'MicrosoftYaHei'" font-size="13.991">急停10</text>
</svg>
