<?xml version="1.0" encoding="utf-8"?>
<!-- Generator: Adobe Illustrator 18.1.1, SVG Export Plug-In . SVG Version: 6.00 Build 0)  -->
<svg version="1.1" id="图层_1" name="2ZC" xmlns="http://www.w3.org/2000/svg" xmlns:xlink="http://www.w3.org/1999/xlink" x="0px" y="0px"
	 viewBox="0 0 1190.6 841.9" enable-background="new 0 0 1190.6 841.9" xml:space="preserve">
<line id="SCANER01" fill="none" stroke="#B3B3B3" stroke-width="40" stroke-miterlimit="10" x1="478" y1="262.3" x2="536" y2="262.3"/>
<line id="BL01" fill="none" stroke="#B3B3B3" stroke-width="30" stroke-miterlimit="10" x1="622.7" y1="262.3" x2="653" y2="262.3"/>
<line id="BL02" fill="none" stroke="#B3B3B3" stroke-width="30" stroke-miterlimit="10" x1="732.4" y1="262.9" x2="762.7" y2="262.9"/>
<line id="BL03" fill="none" stroke="#B3B3B3" stroke-width="30" stroke-miterlimit="10" x1="843.6" y1="262.9" x2="873.9" y2="262.9"/>
<line id="BL04" fill="none" stroke="#B3B3B3" stroke-width="30" stroke-miterlimit="10" x1="955.3" y1="263.1" x2="985.6" y2="263.1"/>
<line id="BL05" fill="none" stroke="#B3B3B3" stroke-width="30" stroke-miterlimit="10" x1="1070.7" y1="263.6" x2="1101" y2="263.6"/>
<text transform="matrix(1 0 0 1 996.3867 76.6341)" font-family="'MicrosoftYaHei'" font-size="59.9475">ZC</text>
<text transform="matrix(1 0 0 1 493.4341 311.2797)" font-family="'MicrosoftYaHei'" font-size="23.979">DWS</text>
<line id="JT05" fill="none" stroke="#B3B3B3" stroke-width="16" stroke-miterlimit="10" x1="51" y1="166.1" x2="51" y2="148.4"/>
<line id="SEN01" fill="none" stroke="#B3B3B3" stroke-width="5" stroke-miterlimit="10" x1="462" y1="231" x2="462" y2="297.6"/>
<line id="SEN02" fill="none" stroke="#B3B3B3" stroke-width="5" stroke-miterlimit="10" x1="607" y1="231" x2="607" y2="297.6"/>
<line id="SEN03" fill="none" stroke="#B3B3B3" stroke-width="5" stroke-miterlimit="10" x1="722" y1="231" x2="722" y2="297.6"/>
<line id="SEN04" fill="none" stroke="#B3B3B3" stroke-width="5" stroke-miterlimit="10" x1="833" y1="232" x2="833" y2="298.6"/>
<line id="SEN05" fill="none" stroke="#B3B3B3" stroke-width="5" stroke-miterlimit="10" x1="944" y1="229.5" x2="944" y2="296.1"/>
<line id="SEN06" fill="none" stroke="#B3B3B3" stroke-width="5" stroke-miterlimit="10" x1="1058" y1="231" x2="1058" y2="297.6"/>
<line id="SEN07" fill="none" stroke="#B3B3B3" stroke-width="5" stroke-miterlimit="10" x1="1145" y1="230.3" x2="1145" y2="296.9"/>
<line id="HUACAO01" fill="none" stroke="#B3B3B3" stroke-width="30" stroke-miterlimit="10" x1="637.9" y1="243.5" x2="637.9" y2="186.8"/>
<line id="HUACAO02" fill="none" stroke="#B3B3B3" stroke-width="30" stroke-miterlimit="10" x1="637.9" y1="337.2" x2="637.9" y2="280.6"/>
<line id="HUACAO03" fill="none" stroke="#B3B3B3" stroke-width="30" stroke-miterlimit="10" x1="747.5" y1="243.5" x2="747.5" y2="186.8"/>
<line id="HUACAO04" fill="none" stroke="#B3B3B3" stroke-width="30" stroke-miterlimit="10" x1="747.5" y1="337.2" x2="747.5" y2="280.6"/>
<line id="HUACAO05" fill="none" stroke="#B3B3B3" stroke-width="30" stroke-miterlimit="10" x1="858.7" y1="244.4" x2="858.7" y2="187.8"/>
<line id="ZC12" fill="none" stroke="#B3B3B3" stroke-width="20" stroke-miterlimit="10" x1="567.2" y1="262.1" x2="536.9" y2="262.1"/>
<ellipse id="JT01" fill="none" stroke="#B3B3B3" stroke-width="16" stroke-miterlimit="10" cx="531.8" cy="397.9" rx="6" ry="2.7"/>
<ellipse id="BUTTON05" fill="none" stroke="#B3B3B3" stroke-width="16" stroke-miterlimit="10" cx="486.3" cy="397.7" rx="6" ry="2.7"/>
<line id="ZC01" fill="none" stroke="#B3B3B3" stroke-width="20" stroke-miterlimit="10" x1="238.9" y1="332.2" x2="238.9" y2="214.8"/>
<line id="ZC02" fill="none" stroke="#B3B3B3" stroke-width="30" stroke-miterlimit="10" x1="238.8" y1="363.9" x2="238.8" y2="333.6"/>
<line id="ZC03" fill="none" stroke="#B3B3B3" stroke-width="20" stroke-miterlimit="10" x1="341.1" y1="348.8" x2="254.5" y2="348.8"/>
<path id="ZC06" fill="none" stroke="#ABABAB" stroke-width="20" stroke-miterlimit="10" d="M337.9,167.9c15.2,0,27.7,10,27.7,22.2"
	/>
<line id="ZC05" fill="none" stroke="#B3B3B3" stroke-width="20" stroke-miterlimit="10" x1="365.1" y1="318.4" x2="365.1" y2="192"/>
<path id="ZC04" fill="none" stroke="#ABABAB" stroke-width="20" stroke-miterlimit="10" d="M365.1,320.7c0,15.2-10,27.7-22.2,27.7"
	/>
<line id="ZC07" fill="none" stroke="#B3B3B3" stroke-width="20" stroke-miterlimit="10" x1="335.7" y1="167.9" x2="103.5" y2="167.9"/>
<line id="DJFL01" fill="none" stroke="#B3B3B3" stroke-width="40" stroke-miterlimit="10" x1="347.8" y1="262.1" x2="105.5" y2="262.1"/>
<line id="ZC10" fill="none" stroke="#B3B3B3" stroke-width="20" stroke-miterlimit="10" x1="419.1" y1="262.1" x2="348.8" y2="262.1"/>
<line id="ZC11" fill="none" stroke="#B3B3B3" stroke-width="20" stroke-miterlimit="10" x1="477" y1="262.1" x2="420.5" y2="262.1"/>
<line id="ZC13" fill="none" stroke="#B3B3B3" stroke-width="20" stroke-miterlimit="10" x1="621" y1="262.1" x2="568.5" y2="262.1"/>
<line id="ZC14" fill="none" stroke="#B3B3B3" stroke-width="20" stroke-miterlimit="10" x1="731" y1="263" x2="655" y2="263"/>
<line id="ZC15" fill="none" stroke="#B3B3B3" stroke-width="20" stroke-miterlimit="10" x1="842" y1="263.1" x2="764" y2="263.1"/>
<line id="ZC16" fill="none" stroke="#B3B3B3" stroke-width="20" stroke-miterlimit="10" x1="953" y1="263.1" x2="874.8" y2="263.1"/>
<line id="ZC17" fill="none" stroke="#B3B3B3" stroke-width="20" stroke-miterlimit="10" x1="1069" y1="263.1" x2="987.6" y2="263.1"/>
<line id="ZC18" fill="none" stroke="#B3B3B3" stroke-width="20" stroke-miterlimit="10" x1="1154" y1="263.1" x2="1102.5" y2="263.1"/>
<text transform="matrix(1 0 0 1 672.2422 269.2948)" font-family="'MicrosoftYaHei'" font-size="17.9816">19</text>
<text transform="matrix(1 0 0 1 793.3281 270.3973)" font-family="'MicrosoftYaHei'" font-size="17.9816">20</text>
<text transform="matrix(1 0 0 1 229.7876 301.2806)" font-family="'MicrosoftYaHei'" font-size="17.9816">01</text>
<text transform="matrix(1 0 0 1 229.6479 357.2079)" font-family="'MicrosoftYaHei'" font-size="17.9816">02</text>
<text transform="matrix(1 0 0 1 283.4712 355.3407)" font-family="'MicrosoftYaHei'" font-size="17.9816">03</text>
<text transform="matrix(1 0 0 1 348.6729 343.7299)" font-family="'MicrosoftYaHei'" font-size="17.9816">04</text>
<text transform="matrix(1 0 0 1 355.937 230.2645)" font-family="'MicrosoftYaHei'" font-size="17.9816">05</text>
<text transform="matrix(1 0 0 1 348.7559 182.8197)" font-family="'MicrosoftYaHei'" font-size="17.9816">06</text>
<text transform="matrix(1 0 0 1 211.2744 174.4725)" font-family="'MicrosoftYaHei'" font-size="17.9816">07</text>
<text transform="matrix(1 0 0 1 393.3232 268.2943)" font-family="'MicrosoftYaHei'" font-size="17.9816">14</text>
<text transform="matrix(1 0 0 1 424.4146 268.2943)" font-family="'MicrosoftYaHei'" font-size="17.9816">15</text>
<text transform="matrix(1 0 0 1 576.1821 268.2948)" font-family="'MicrosoftYaHei'" font-size="17.9816">18</text>
<text transform="matrix(1 0 0 1 894.6094 269.1097)" font-family="'MicrosoftYaHei'" font-size="17.9816">21</text>
<text transform="matrix(1 0 0 1 1022.1182 270.2943)" font-family="'MicrosoftYaHei'" font-size="17.9816">22</text>
<text transform="matrix(1 0 0 1 1108.4824 273.2928)" font-family="'MicrosoftYaHei'" font-size="17.9816">23</text>
<line id="ZX00" fill="none" stroke="#B3B3B3" stroke-width="25" stroke-miterlimit="10" x1="70.3" y1="32.4" x2="46.9" y2="32.4"/>
<line id="FJMODE" fill="none" stroke="#B3B3B3" stroke-width="25" stroke-miterlimit="10" x1="320.9" y1="32.4" x2="297.5" y2="32.4"/>
<line id="BLOCKABLE" fill="none" stroke="#B3B3B3" stroke-width="25" stroke-miterlimit="10" x1="231.6" y1="32.4" x2="208.3" y2="32.4"/>
<line id="SLEEPABLE" fill="none" stroke="#B3B3B3" stroke-width="25" stroke-miterlimit="10" x1="153" y1="32.4" x2="129.6" y2="32.4"/>
<text transform="matrix(1 0 0 1 105.5322 66.1224)" font-family="'MicrosoftYaHei'" font-size="17.9904">休眠功能</text>
<text transform="matrix(1 0 0 1 22.5713 66.1224)" font-family="'MicrosoftYaHei'" font-size="17.9904">整线状态</text>
<text transform="matrix(1 0 0 1 186.29 66.1224)" font-family="'MicrosoftYaHei'" font-size="17.9904">堵塞功能</text>
<text transform="matrix(1 0 0 1 271.2764 66.1224)" font-family="'MicrosoftYaHei'" font-size="17.9904">分拣模式</text>
<line id="BIAODING" fill="none" stroke="#B3B3B3" stroke-width="25" stroke-miterlimit="10" x1="405.8" y1="33.4" x2="382.4" y2="33.4"/>
<text transform="matrix(1 0 0 1 356.8408 66.1224)" font-family="'MicrosoftYaHei'" font-size="17.9904">标定模式</text>
<text transform="matrix(1 0 0 1 192.5688 267.3002)" font-family="'MicrosoftYaHei'" font-size="17.9944">单间分离</text>
<path id="ZC09" fill="none" stroke="#ABABAB" stroke-width="20" stroke-miterlimit="10" d="M105.5,263.1
	c-22.8,0-41.5-21.5-41.5-47.6"/>
<path id="ZC08" fill="none" stroke="#ABABAB" stroke-width="20" stroke-miterlimit="10" d="M64,214.5c0-25.6,17.1-46.7,38-46.7"/>
<text transform="matrix(1 0 0 1 63.9946 251.4994)" font-family="'MicrosoftYaHei'" font-size="17.9816">09</text>
<text transform="matrix(1 0 0 1 63.9946 192.0595)" font-family="'MicrosoftYaHei'" font-size="17.9816">08</text>
<line id="HUACAO06" fill="none" stroke="#B3B3B3" stroke-width="30" stroke-miterlimit="10" x1="858.7" y1="337.2" x2="858.7" y2="280.6"/>
<line id="HUACAO07" fill="none" stroke="#B3B3B3" stroke-width="30" stroke-miterlimit="10" x1="970.4" y1="245.5" x2="970.4" y2="188.9"/>
<line id="HUACAO08" fill="none" stroke="#B3B3B3" stroke-width="30" stroke-miterlimit="10" x1="970" y1="336.6" x2="970" y2="280"/>
<line id="HUACAO09" fill="none" stroke="#B3B3B3" stroke-width="30" stroke-miterlimit="10" x1="1085.8" y1="246.6" x2="1085.8" y2="190"/>
<line id="HUACAO10" fill="none" stroke="#B3B3B3" stroke-width="30" stroke-miterlimit="10" x1="1085.8" y1="337.2" x2="1085.8" y2="280.6"/>
<text transform="matrix(1 0 0 1 537.6875 268.2948)" font-family="'MicrosoftYaHei'" font-size="17.9816">17</text>
<text transform="matrix(1 0 0 1 443.7207 425.2015)" font-family="'MicrosoftYaHei'" font-size="13.9934">分拣模式</text>
<text transform="matrix(1 0 0 1 504.9219 425.2035)" font-family="'MicrosoftYaHei'" font-size="13.9934">主柜急停01</text>
<text transform="matrix(1 0 0 1 27.9779 143.3896)" font-family="'MicrosoftYaHei'" font-size="13.9934">急停04</text>
<text transform="matrix(1 0 0 1 659.5107 203.5175)" font-family="'MicrosoftYaHei'" font-size="13.9934">急停05</text>
<text transform="matrix(1 0 0 1 659.5107 324.7469)" font-family="'MicrosoftYaHei'" font-size="13.9934">急停06</text>
<text transform="matrix(1 0 0 1 769.4961 202.6161)" font-family="'MicrosoftYaHei'" font-size="13.9934">急停07</text>
<text transform="matrix(1 0 0 1 769.4971 322.2968)" font-family="'MicrosoftYaHei'" font-size="13.9934">急停08</text>
<text transform="matrix(1 0 0 1 987.4336 203.5179)" font-family="'MicrosoftYaHei'" font-size="13.9934">急停09</text>
<text transform="matrix(1 0 0 1 985.4355 324.7474)" font-family="'MicrosoftYaHei'" font-size="13.9934">急停10</text>
<text transform="matrix(1 0 0 1 607.6533 417.1927)" font-family="'MicrosoftYaHei'" font-size="13.9934">摆轮急停1</text>
<text transform="matrix(1 0 0 1 709.8096 415.4926)" font-family="'MicrosoftYaHei'" font-size="13.9934">摆轮急停2</text>
<text transform="matrix(1 0 0 1 813.5879 417.1927)" font-family="'MicrosoftYaHei'" font-size="13.9934">摆轮急停3</text>
<text transform="matrix(1 0 0 1 936.3564 416.181)" font-family="'MicrosoftYaHei'" font-size="13.9934">摆轮急停4</text>
<text transform="matrix(1 0 0 1 1052.6729 416.181)" font-family="'MicrosoftYaHei'" font-size="13.9934">摆轮急停5</text>
<text transform="matrix(1 0 0 1 625.6943 180.056)" font-family="'MicrosoftYaHei'" font-size="13.9934">滑槽01</text>
<text transform="matrix(1 0 0 1 732.2773 181.12)" font-family="'MicrosoftYaHei'" font-size="13.9934">滑槽03</text>
<text transform="matrix(1 0 0 1 837.6602 180.056)" font-family="'MicrosoftYaHei'" font-size="13.9934">滑槽05</text>
<text transform="matrix(1 0 0 1 952.8398 181.1195)" font-family="'MicrosoftYaHei'" font-size="13.9934">滑槽07</text>
<text transform="matrix(1 0 0 1 1068.8203 182.8197)" font-family="'MicrosoftYaHei'" font-size="13.9934">滑槽09</text>
<text transform="matrix(1 0 0 1 620.6406 346.6019)" font-family="'MicrosoftYaHei'" font-size="13.9934">滑槽02</text>
<text transform="matrix(1 0 0 1 732.2773 346.7298)" font-family="'MicrosoftYaHei'" font-size="13.9934">滑槽04</text>
<text transform="matrix(1 0 0 1 841.8594 344.4925)" font-family="'MicrosoftYaHei'" font-size="13.9934">滑槽06</text>
<text transform="matrix(1 0 0 1 952.8398 346.7298)" font-family="'MicrosoftYaHei'" font-size="13.9934">滑槽08</text>
<text transform="matrix(1 0 0 1 1068.8203 346.7298)" font-family="'MicrosoftYaHei'" font-size="13.9934">滑槽10</text>
<text transform="matrix(1 0 0 1 443.7207 226.7626)" font-family="'MicrosoftYaHei'" font-size="13.9934">PH12</text>
<text transform="matrix(1 0 0 1 580.7031 226.8124)" font-family="'MicrosoftYaHei'" font-size="13.9934">PH13</text>
<text transform="matrix(1 0 0 1 913.7471 226.8124)" font-family="'MicrosoftYaHei'" font-size="13.9934">PH16</text>
<text transform="matrix(1 0 0 1 1032.6465 226.8124)" font-family="'MicrosoftYaHei'" font-size="13.9934">PH17</text>
<text transform="matrix(1 0 0 1 1120.6357 226.8124)" font-family="'MicrosoftYaHei'" font-size="13.9934">PH18</text>
<text transform="matrix(1 0 0 1 615.6943 265.306)" font-family="'MicrosoftYaHei'" font-size="13.9934">摆轮01</text>
<text transform="matrix(1 0 0 1 727.3496 267.3002)" font-family="'MicrosoftYaHei'" font-size="13.9934">摆轮02</text>
<line id="JT02" fill="none" stroke="#B3B3B3" stroke-width="16" stroke-miterlimit="10" x1="192.6" y1="219.9" x2="192.6" y2="202.2"/>
<text transform="matrix(1 0 0 1 169.5467 197.2834)" font-family="'MicrosoftYaHei'" font-size="13.9934">急停01</text>
<line id="JT03" fill="none" stroke="#B3B3B3" stroke-width="16" stroke-miterlimit="10" x1="192.6" y1="344.9" x2="192.6" y2="327.2"/>
<text transform="matrix(1 0 0 1 169.5466 322.266)" font-family="'MicrosoftYaHei'" font-size="13.9934">急停02</text>
<line id="JT04" fill="none" stroke="#B3B3B3" stroke-width="16" stroke-miterlimit="10" x1="379" y1="163.6" x2="379" y2="145.9"/>
<text transform="matrix(1 0 0 1 355.9369 140.9066)" font-family="'MicrosoftYaHei'" font-size="13.9934">急停03</text>
<line id="JT06" fill="none" stroke="#B3B3B3" stroke-width="16" stroke-miterlimit="10" x1="680.4" y1="229.1" x2="680.4" y2="211.4"/>
<line id="JT07" fill="none" stroke="#B3B3B3" stroke-width="16" stroke-miterlimit="10" x1="680.4" y1="305.7" x2="680.4" y2="288.1"/>
<line id="JT08" fill="none" stroke="#B3B3B3" stroke-width="16" stroke-miterlimit="10" x1="789" y1="226.1" x2="789" y2="208.4"/>
<line id="JT09" fill="none" stroke="#B3B3B3" stroke-width="16" stroke-miterlimit="10" x1="789" y1="305.7" x2="789" y2="288.1"/>
<line id="JT10" fill="none" stroke="#B3B3B3" stroke-width="16" stroke-miterlimit="10" x1="1009" y1="226.1" x2="1009" y2="208.4"/>
<line id="JT11" fill="none" stroke="#B3B3B3" stroke-width="16" stroke-miterlimit="10" x1="1009" y1="304.9" x2="1009" y2="287.3"/>
<line id="JT12" fill="none" stroke="#B3B3B3" stroke-width="16" stroke-miterlimit="10" x1="637.8" y1="391.4" x2="637.8" y2="373.7"/>
<line id="JT13" fill="none" stroke="#B3B3B3" stroke-width="16" stroke-miterlimit="10" x1="747.5" y1="391.4" x2="747.5" y2="373.7"/>
<line id="JT14" fill="none" stroke="#B3B3B3" stroke-width="16" stroke-miterlimit="10" x1="858.7" y1="391.4" x2="858.7" y2="373.7"/>
<line id="JT15" fill="none" stroke="#B3B3B3" stroke-width="16" stroke-miterlimit="10" x1="970" y1="391.4" x2="970" y2="373.7"/>
<line id="JT16" fill="none" stroke="#B3B3B3" stroke-width="16" stroke-miterlimit="10" x1="1085.8" y1="391.4" x2="1085.8" y2="373.7"/>
<text transform="matrix(1 0 0 1 693.9709 226.1026)" font-family="'MicrosoftYaHei'" font-size="13.9934">PH14</text>
<text transform="matrix(1 0 0 1 806.6359 226.1027)" font-family="'MicrosoftYaHei'" font-size="13.9934">PH15</text>
<text transform="matrix(1 0 0 1 837.6602 267.3002)" font-family="'MicrosoftYaHei'" font-size="13.9934">摆轮03</text>
<text transform="matrix(1 0 0 1 952.8398 269.2948)" font-family="'MicrosoftYaHei'" font-size="13.9934">摆轮04</text>
<text transform="matrix(1 0 0 1 1057.9556 268.2948)" font-family="'MicrosoftYaHei'" font-size="13.9934">摆轮05</text>
</svg>
