<?xml version="1.0" encoding="utf-8"?>
<!-- Generator: Adobe Illustrator 18.1.1, SVG Export Plug-In . SVG Version: 6.00 Build 0)  -->
<svg version="1.1" id="图层_1" name="2ZD" xmlns="http://www.w3.org/2000/svg" xmlns:xlink="http://www.w3.org/1999/xlink" x="0px" y="0px"
	 viewBox="0 0 1190.6 841.9" enable-background="new 0 0 1190.6 841.9" xml:space="preserve">
<line id="SCANER01" fill="none" stroke="#B3B3B3" stroke-width="40" stroke-miterlimit="10" x1="340.6" y1="227.4" x2="401" y2="227.4"/>
<path id="ZD07" fill="none" stroke="#ABABAB" stroke-width="20" stroke-miterlimit="10" d="M102.7,350.1
	c-23.1,0-42.1-28.7-42.1-63.6"/>
<line id="BL01" fill="none" stroke="#B3B3B3" stroke-width="30" stroke-miterlimit="10" x1="508.8" y1="228.4" x2="539.1" y2="228.4"/>
<line id="BL02" fill="none" stroke="#B3B3B3" stroke-width="30" stroke-miterlimit="10" x1="674.5" y1="229" x2="704.8" y2="229"/>
<line id="BL03" fill="none" stroke="#B3B3B3" stroke-width="30" stroke-miterlimit="10" x1="768.7" y1="229" x2="799" y2="229"/>
<line id="BL04" fill="none" stroke="#B3B3B3" stroke-width="30" stroke-miterlimit="10" x1="954.3" y1="229.2" x2="984.6" y2="229.2"/>
<line id="BL05" fill="none" stroke="#B3B3B3" stroke-width="30" stroke-miterlimit="10" x1="1065.7" y1="229.7" x2="1096" y2="229.7"/>
<text transform="matrix(1 0 0 1 865.0967 74.6624)" font-family="'MicrosoftYaHei'" font-size="59.9375">ZD</text>
<text transform="matrix(1 0 0 1 340.5249 270.0814)" font-family="'MicrosoftYaHei'" font-size="23.975">DWS</text>
<line id="JT02" fill="none" stroke="#B3B3B3" stroke-width="25" stroke-miterlimit="10" x1="131.6" y1="312.6" x2="131.6" y2="289.3"/>
<line id="JT03" fill="none" stroke="#B3B3B3" stroke-width="25" stroke-miterlimit="10" x1="176.1" y1="187.2" x2="176.1" y2="163.9"/>
<line id="JT04" fill="none" stroke="#B3B3B3" stroke-width="25" stroke-miterlimit="10" x1="392.4" y1="327.3" x2="392.4" y2="303.9"/>
<line id="JT05" fill="none" stroke="#B3B3B3" stroke-width="25" stroke-miterlimit="10" x1="26.4" y1="313.1" x2="26.4" y2="289.8"/>
<line id="JT08" fill="none" stroke="#B3B3B3" stroke-width="25" stroke-miterlimit="10" x1="720.8" y1="204" x2="720.8" y2="180.6"/>
<line id="SEN01" fill="none" stroke="#B3B3B3" stroke-width="5" stroke-miterlimit="10" x1="330.8" y1="193.1" x2="330.8" y2="259.7"/>
<line id="SEN02" fill="none" stroke="#B3B3B3" stroke-width="5" stroke-miterlimit="10" x1="502" y1="195.7" x2="502" y2="262.3"/>
<line id="SEN03" fill="none" stroke="#B3B3B3" stroke-width="5" stroke-miterlimit="10" x1="663.3" y1="193.2" x2="663.3" y2="259.8"/>
<line id="SEN04" fill="none" stroke="#B3B3B3" stroke-width="5" stroke-miterlimit="10" x1="762" y1="196.4" x2="762" y2="263"/>
<line id="SEN05" fill="none" stroke="#B3B3B3" stroke-width="5" stroke-miterlimit="10" x1="945.9" y1="195.2" x2="945.9" y2="261.8"/>
<line id="SEN06" fill="none" stroke="#B3B3B3" stroke-width="5" stroke-miterlimit="10" x1="1059" y1="196.4" x2="1059" y2="263"/>
<line id="SEN07" fill="none" stroke="#B3B3B3" stroke-width="5" stroke-miterlimit="10" x1="1150" y1="195.6" x2="1150" y2="262.2"/>
<line id="HUACAO02" fill="none" stroke="#B3B3B3" stroke-width="30" stroke-miterlimit="10" x1="523.9" y1="302.3" x2="523.9" y2="245.6"/>
<line id="HUACAO03" fill="none" stroke="#B3B3B3" stroke-width="30" stroke-miterlimit="10" x1="689.6" y1="211.6" x2="689.6" y2="154.9"/>
<line id="HUACAO04" fill="none" stroke="#B3B3B3" stroke-width="30" stroke-miterlimit="10" x1="689.6" y1="302.3" x2="689.6" y2="245.7"/>
<line id="HUACAO05" fill="none" stroke="#B3B3B3" stroke-width="30" stroke-miterlimit="10" x1="783.8" y1="212" x2="783.8" y2="155.4"/>
<line id="JT09" fill="none" stroke="#B3B3B3" stroke-width="25" stroke-miterlimit="10" x1="721.8" y1="268.3" x2="721.8" y2="245"/>
<line id="JT10" fill="none" stroke="#B3B3B3" stroke-width="25" stroke-miterlimit="10" x1="1006.6" y1="207.3" x2="1006.6" y2="184"/>
<line id="JT11" fill="none" stroke="#B3B3B3" stroke-width="25" stroke-miterlimit="10" x1="1008.1" y1="275.1" x2="1008.1" y2="251.7"/>
<line id="JT12" fill="none" stroke="#B3B3B3" stroke-width="25" stroke-miterlimit="10" x1="525.7" y1="364.6" x2="525.7" y2="341.3"/>
<line id="JT13" fill="none" stroke="#B3B3B3" stroke-width="25" stroke-miterlimit="10" x1="689.6" y1="364.6" x2="689.6" y2="341.2"/>
<line id="JT15" fill="none" stroke="#B3B3B3" stroke-width="25" stroke-miterlimit="10" x1="969.4" y1="365.6" x2="969.4" y2="342.3"/>
<line id="JT14" fill="none" stroke="#B3B3B3" stroke-width="25" stroke-miterlimit="10" x1="783.8" y1="364.6" x2="783.8" y2="341.3"/>
<ellipse id="JT01" fill="none" stroke="#B3B3B3" stroke-width="16" stroke-miterlimit="10" cx="258.8" cy="394.4" rx="6" ry="2.7"/>
<ellipse id="BUTTON05" fill="none" stroke="#B3B3B3" stroke-width="16" stroke-miterlimit="10" cx="213.3" cy="394.2" rx="6" ry="2.7"/>
<text transform="matrix(1 0 0 1 179.082 419.929)" font-family="'MicrosoftYaHei'" font-size="13.9904">分拣模式</text>
<text transform="matrix(1 0 0 1 240.2715 419.929)" font-family="'MicrosoftYaHei'" font-size="13.9904">主柜急停01</text>
<line id="ZD03" fill="none" stroke="#B3B3B3" stroke-width="20" stroke-miterlimit="10" x1="226.3" y1="266.7" x2="317" y2="266.7"/>
<line id="ZD02" fill="none" stroke="#B3B3B3" stroke-width="20" stroke-miterlimit="10" x1="224.3" y1="266.7" x2="182.2" y2="266.7"/>
<path id="ZD04" fill="none" stroke="#ABABAB" stroke-width="20" stroke-miterlimit="10" d="M319.2,267.3c15,0,27.4,18.2,27.4,40.5"
	/>
<path id="ZD05" fill="none" stroke="#ABABAB" stroke-width="20" stroke-miterlimit="10" d="M346.5,308.9c0,22.8-13.4,41.5-29.8,41.5
	"/>
<path id="ZD08" fill="none" stroke="#ABABAB" stroke-width="20" stroke-miterlimit="10" d="M60.6,285.5c0-31.3,19.3-57,42.9-57"/>
<line id="DJFL01" fill="none" stroke="#B3B3B3" stroke-width="40" stroke-miterlimit="10" x1="238.3" y1="228" x2="105.5" y2="228"/>
<line id="ZD10" fill="none" stroke="#B3B3B3" stroke-width="20" stroke-miterlimit="10" x1="338.3" y1="227.4" x2="272.9" y2="227.4"/>
<line id="ZD09" fill="none" stroke="#B3B3B3" stroke-width="20" stroke-miterlimit="10" x1="270.9" y1="227.9" x2="240.3" y2="227.9"/>
<line id="ZD12" fill="none" stroke="#B3B3B3" stroke-width="20" stroke-miterlimit="10" x1="507.4" y1="228.2" x2="440" y2="228.2"/>
<line id="ZD13" fill="none" stroke="#B3B3B3" stroke-width="20" stroke-miterlimit="10" x1="672.9" y1="229.1" x2="540.1" y2="229.1"/>
<line id="ZD14" fill="none" stroke="#B3B3B3" stroke-width="20" stroke-miterlimit="10" x1="767.6" y1="229.2" x2="705.8" y2="229.2"/>
<line id="ZD16" fill="none" stroke="#B3B3B3" stroke-width="20" stroke-miterlimit="10" x1="1065" y1="228.2" x2="985.6" y2="228.2"/>
<line id="ZD15" fill="none" stroke="#B3B3B3" stroke-width="20" stroke-miterlimit="10" x1="951.9" y1="229.4" x2="800.1" y2="229.4"/>
<line id="ZD17" fill="none" stroke="#B3B3B3" stroke-width="20" stroke-miterlimit="10" x1="1158.1" y1="229.2" x2="1098" y2="229.2"/>
<text transform="matrix(1 0 0 1 601.1719 235.3758)" font-family="'MicrosoftYaHei'" font-size="17.9784">18</text>
<text transform="matrix(1 0 0 1 729.2412 236.4784)" font-family="'MicrosoftYaHei'" font-size="17.9784">19</text>
<text transform="matrix(1 0 0 1 192.432 273.9964)" font-family="'MicrosoftYaHei'" font-size="17.9784">02</text>
<text transform="matrix(1 0 0 1 258.7889 275.0963)" font-family="'MicrosoftYaHei'" font-size="17.9784">03</text>
<text transform="matrix(1 0 0 1 243.2295 234.0843)" font-family="'MicrosoftYaHei'" font-size="17.9784">13</text>
<text transform="matrix(1 0 0 1 462.1372 234.3759)" font-family="'MicrosoftYaHei'" font-size="17.9784">17</text>
<text transform="matrix(1 0 0 1 866.5029 235.1913)" font-family="'MicrosoftYaHei'" font-size="17.9784">20</text>
<text transform="matrix(1 0 0 1 1012.75 236.4789)" font-family="'MicrosoftYaHei'" font-size="17.9784">21</text>
<text transform="matrix(1 0 0 1 1114.3281 237.3753)" font-family="'MicrosoftYaHei'" font-size="17.9784">22</text>
<line id="ZX00" fill="none" stroke="#B3B3B3" stroke-width="25" stroke-miterlimit="10" x1="67.3" y1="30.4" x2="43.9" y2="30.4"/>
<line id="FJMODE" fill="none" stroke="#B3B3B3" stroke-width="25" stroke-miterlimit="10" x1="317.9" y1="30.4" x2="294.5" y2="30.4"/>
<line id="BLOCKABLE" fill="none" stroke="#B3B3B3" stroke-width="25" stroke-miterlimit="10" x1="228.6" y1="30.4" x2="205.3" y2="30.4"/>
<line id="SLEEPABLE" fill="none" stroke="#B3B3B3" stroke-width="25" stroke-miterlimit="10" x1="150" y1="30.4" x2="126.6" y2="30.4"/>
<text transform="matrix(1 0 0 1 102.5054 64.1551)" font-family="'MicrosoftYaHei'" font-size="17.9872">休眠功能</text>
<text transform="matrix(1 0 0 1 19.5581 64.1551)" font-family="'MicrosoftYaHei'" font-size="17.9872">整线状态</text>
<text transform="matrix(1 0 0 1 183.2495 64.1551)" font-family="'MicrosoftYaHei'" font-size="17.9872">堵塞功能</text>
<text transform="matrix(1 0 0 1 268.2236 64.1551)" font-family="'MicrosoftYaHei'" font-size="17.9872">分拣模式</text>
<line id="BIAODING" fill="none" stroke="#B3B3B3" stroke-width="25" stroke-miterlimit="10" x1="402.8" y1="31.4" x2="379.4" y2="31.4"/>
<text transform="matrix(1 0 0 1 353.7729 64.1551)" font-family="'MicrosoftYaHei'" font-size="17.9872">标定模式</text>
<text transform="matrix(1 0 0 1 136.2642 235.4007)" font-family="'MicrosoftYaHei'" font-size="17.9912">单间分离</text>
<line id="ZD01" fill="none" stroke="#B3B3B3" stroke-width="20" stroke-miterlimit="10" x1="171" y1="323.7" x2="171" y2="254.8"/>
<text transform="matrix(1 0 0 1 327.0211 289.2909)" font-family="'MicrosoftYaHei'" font-size="17.9784">04</text>
<text transform="matrix(1 0 0 1 60.5972 251.6978)" font-family="'MicrosoftYaHei'" font-size="17.9784">08</text>
<line id="HUACAO06" fill="none" stroke="#B3B3B3" stroke-width="30" stroke-miterlimit="10" x1="783.8" y1="302.3" x2="783.8" y2="245.7"/>
<line id="ZD11" fill="none" stroke="#B3B3B3" stroke-width="20" stroke-miterlimit="10" x1="438" y1="228.2" x2="402.7" y2="228.2"/>
<text transform="matrix(1 0 0 1 408.6182 234.2772)" font-family="'MicrosoftYaHei'" font-size="17.9784">16</text>
<line id="HUACAO07" fill="none" stroke="#B3B3B3" stroke-width="30" stroke-miterlimit="10" x1="969.4" y1="212" x2="969.4" y2="155.4"/>
<line id="HUACAO08" fill="none" stroke="#B3B3B3" stroke-width="30" stroke-miterlimit="10" x1="969.4" y1="302.3" x2="969.4" y2="245.7"/>
<line id="HUACAO09" fill="none" stroke="#B3B3B3" stroke-width="30" stroke-miterlimit="10" x1="1080.8" y1="212.5" x2="1080.8" y2="155.9"/>
<line id="HUACAO10" fill="none" stroke="#B3B3B3" stroke-width="30" stroke-miterlimit="10" x1="1080.8" y1="303.3" x2="1080.8" y2="246.7"/>
<line id="JT16" fill="none" stroke="#B3B3B3" stroke-width="25" stroke-miterlimit="10" x1="1080.8" y1="365.6" x2="1080.8" y2="342.3"/>
<text transform="matrix(1 0 0 1 105.4954 329.6442)" font-family="'MicrosoftYaHei'" font-size="13.9904">急停01</text>
<text transform="matrix(1 0 0 1 145.3263 160.2352)" font-family="'MicrosoftYaHei'" font-size="13.9904">急停02</text>
<text transform="matrix(1 0 0 1 370.7841 297.91)" font-family="'MicrosoftYaHei'" font-size="13.9904">急停03</text>
<text transform="matrix(1 0 0 1 5 282.7512)" font-family="'MicrosoftYaHei'" font-size="13.9904">急停04</text>
<text transform="matrix(1 0 0 1 586.25 180.3104)" font-family="'MicrosoftYaHei'" font-size="13.9904">急停05</text>
<text transform="matrix(1 0 0 1 588.4512 287.2919)" font-family="'MicrosoftYaHei'" font-size="13.9904">急停06</text>
<text transform="matrix(1 0 0 1 709.7422 173.7088)" font-family="'MicrosoftYaHei'" font-size="13.9904">急停07</text>
<text transform="matrix(1 0 0 1 709.7422 282.7787)" font-family="'MicrosoftYaHei'" font-size="13.9904">急停08</text>
<text transform="matrix(1 0 0 1 330.7857 190.2273)" font-family="'MicrosoftYaHei'" font-size="13.9904">PH11</text>
<text transform="matrix(1 0 0 1 501.8032 317.5892)" font-family="'MicrosoftYaHei'" font-size="13.9904">滑槽02</text>
<text transform="matrix(1 0 0 1 665.75 150.3241)" font-family="'MicrosoftYaHei'" font-size="13.9904">滑槽03</text>
<text transform="matrix(1 0 0 1 665.75 317.4623)" font-family="'MicrosoftYaHei'" font-size="13.9904">滑槽04</text>
<text transform="matrix(1 0 0 1 761.7129 148.1957)" font-family="'MicrosoftYaHei'" font-size="13.9904">滑槽05</text>
<text transform="matrix(1 0 0 1 761.7129 317.4623)" font-family="'MicrosoftYaHei'" font-size="13.9904">滑槽06</text>
<text transform="matrix(1 0 0 1 506.6006 233.2772)" font-family="'MicrosoftYaHei'" font-size="13.9904">摆轮01</text>
<text transform="matrix(1 0 0 1 945.6563 148.1957)" font-family="'MicrosoftYaHei'" font-size="13.9904">滑槽07</text>
<text transform="matrix(1 0 0 1 945.6563 317.5892)" font-family="'MicrosoftYaHei'" font-size="13.9904">滑槽08</text>
<text transform="matrix(1 0 0 1 1064.6104 148.1957)" font-family="'MicrosoftYaHei'" font-size="13.9904">滑槽09</text>
<text transform="matrix(1 0 0 1 1058.6152 317.4623)" font-family="'MicrosoftYaHei'" font-size="13.9904">滑槽10</text>
<text transform="matrix(1 0 0 1 469.2148 189.2264)" font-family="'MicrosoftYaHei'" font-size="13.9904">PH12</text>
<text transform="matrix(1 0 0 1 729.8447 192.9071)" font-family="'MicrosoftYaHei'" font-size="13.9904">PH14</text>
<text transform="matrix(1 0 0 1 1024.9277 192.9071)" font-family="'MicrosoftYaHei'" font-size="13.9904">PH16</text>
<text transform="matrix(1 0 0 1 951.9541 233.2772)" font-family="'MicrosoftYaHei'" font-size="13.9904">摆轮04</text>
<text transform="matrix(1 0 0 1 291.2354 234.0848)" font-family="'MicrosoftYaHei'" font-size="17.9784">14</text>
<text transform="matrix(1 0 0 1 636.1738 189.2264)" font-family="'MicrosoftYaHei'" font-size="13.9904">PH13</text>
<text transform="matrix(1 0 0 1 912.1055 190.2274)" font-family="'MicrosoftYaHei'" font-size="13.9904">PH15</text>
<text transform="matrix(1 0 0 1 1132.6758 192.2035)" font-family="'MicrosoftYaHei'" font-size="13.9904">PH17</text>
<line id="HUACAO01" fill="none" stroke="#B3B3B3" stroke-width="30" stroke-miterlimit="10" x1="524.8" y1="211.6" x2="524.8" y2="154.9"/>
<text transform="matrix(1 0 0 1 500.9766 151.3197)" font-family="'MicrosoftYaHei'" font-size="13.9904">滑槽01</text>
<text transform="matrix(1 0 0 1 487.2813 383.3998)" font-family="'MicrosoftYaHei'" font-size="13.9898">摆轮急停01</text>
<text transform="matrix(1 0 0 1 650.0215 383.3998)" font-family="'MicrosoftYaHei'" font-size="13.9898">摆轮急停02</text>
<text transform="matrix(1 0 0 1 754.1387 383.3998)" font-family="'MicrosoftYaHei'" font-size="13.9898">摆轮急停03</text>
<text transform="matrix(1 0 0 1 935.0537 383.3988)" font-family="'MicrosoftYaHei'" font-size="13.9898">摆轮急停04</text>
<text transform="matrix(1 0 0 1 1049.4619 383.3988)" font-family="'MicrosoftYaHei'" font-size="13.9898">摆轮急停05</text>
<text transform="matrix(1 0 0 1 322.8859 342.2944)" font-family="'MicrosoftYaHei'" font-size="17.9784">05</text>
<text transform="matrix(1 0 0 1 60.5972 331.945)" font-family="'MicrosoftYaHei'" font-size="17.9784">07</text>
<line id="ZD06" fill="none" stroke="#B3B3B3" stroke-width="20" stroke-miterlimit="10" x1="315.3" y1="349.9" x2="104.5" y2="349.9"/>
<text transform="matrix(1 0 0 1 182.1927 359.0239)" font-family="'MicrosoftYaHei'" font-size="17.9784">06</text>
<line id="JT06" fill="none" stroke="#B3B3B3" stroke-width="25" stroke-miterlimit="10" x1="606.5" y1="211.1" x2="606.5" y2="187.7"/>
<line id="JT07" fill="none" stroke="#B3B3B3" stroke-width="25" stroke-miterlimit="10" x1="606.5" y1="270.4" x2="606.5" y2="247"/>
<text transform="matrix(1 0 0 1 986.5186 178.7084)" font-family="'MicrosoftYaHei'" font-size="13.9904">急停09</text>
<text transform="matrix(1 0 0 1 989.7305 289.2914)" font-family="'MicrosoftYaHei'" font-size="13.9904">急停10</text>
<text transform="matrix(1 0 0 1 160.7206 302.2959)" font-family="'MicrosoftYaHei'" font-size="17.9784">01</text>
</svg>
