<?xml version="1.0" encoding="utf-8"?>
<!-- Generator: Adobe Illustrator 18.1.1, SVG Export Plug-In . SVG Version: 6.00 Build 0)  -->
<svg version="1.1" id="图层_1" name="GE" xmlns="http://www.w3.org/2000/svg" xmlns:xlink="http://www.w3.org/1999/xlink" x="0px" y="0px"
	 viewBox="0 0 1190.6 841.9" enable-background="new 0 0 1190.6 841.9" xml:space="preserve">
<line id="GE01" fill="none" stroke="#B3B3B3" stroke-width="20" stroke-miterlimit="10" x1="1158" y1="82.8" x2="1158" y2="216.9"/>
<path id="GE02" fill="none" stroke="#ABABAB" stroke-width="20" stroke-miterlimit="10" d="M1158,218.8c0,16.1-16.5,29.3-36.6,29.3"
	/>
<line id="GE03" fill="none" stroke="#B3B3B3" stroke-width="20" stroke-miterlimit="10" x1="1118.6" y1="248.7" x2="1043" y2="248.7"/>
<line id="GE04" fill="none" stroke="#B3B3B3" stroke-width="20" stroke-miterlimit="10" x1="831" y1="248.7" x2="750" y2="248.7"/>
<line id="DJFL01" fill="none" stroke="#B3B3B3" stroke-width="40" stroke-miterlimit="10" x1="929.9" y1="248" x2="1041.1" y2="248"/>
<line id="GE05" fill="none" stroke="#B3B3B3" stroke-width="20" stroke-miterlimit="10" x1="748.2" y1="249.4" x2="698.3" y2="249.4"/>
<line id="GE06" fill="none" stroke="#B3B3B3" stroke-width="20" stroke-miterlimit="10" x1="696" y1="249.4" x2="643.4" y2="249.4"/>
<line id="SCANER01" fill="none" stroke="#B3B3B3" stroke-width="40" stroke-miterlimit="10" x1="887.3" y1="248.7" x2="832.8" y2="248.7"/>
<line id="GE08" fill="none" stroke="#B3B3B3" stroke-width="20" stroke-miterlimit="10" x1="589.3" y1="248.9" x2="540.7" y2="248.9"/>
<path id="XXXX" fill="none" stroke="#ABABAB" stroke-width="20" stroke-miterlimit="10" d="M53.3,278.7c0-16.1,16.5-29.3,36.6-29.3"
	/>
<line id="BL01" fill="none" stroke="#B3B3B3" stroke-width="30" stroke-miterlimit="10" x1="539.6" y1="249.4" x2="499.6" y2="249.4"/>
<line id="GE09" fill="none" stroke="#B3B3B3" stroke-width="20" stroke-miterlimit="10" x1="498.3" y1="248.1" x2="450.2" y2="248.1"/>
<line id="BL02" fill="none" stroke="#B3B3B3" stroke-width="30" stroke-miterlimit="10" x1="449.7" y1="249.4" x2="409.7" y2="249.4"/>
<line id="BL03" fill="none" stroke="#B3B3B3" stroke-width="30" stroke-miterlimit="10" x1="360" y1="248.1" x2="320.1" y2="248.1"/>
<line id="BL04" fill="none" stroke="#B3B3B3" stroke-width="30" stroke-miterlimit="10" x1="270" y1="248.1" x2="230" y2="248.1"/>
<line id="BL05" fill="none" stroke="#B3B3B3" stroke-width="30" stroke-miterlimit="10" x1="179.8" y1="248.1" x2="139.8" y2="248.1"/>
<text transform="matrix(1 0 0 1 1043.125 71.5941)" font-family="'MicrosoftYaHei'" font-size="59.9575">GE</text>
<text transform="matrix(1 0 0 1 927.0335 309.0694)" font-family="'MicrosoftYaHei'" font-size="31.6576">单件分离</text>
<text transform="matrix(1 0 0 1 797.0745 308.791)" font-family="'MicrosoftYaHei'" font-size="31.6576">六面扫</text>
<text transform="matrix(1 0 0 1 1144.6836 175.3524)" font-family="'MicrosoftYaHei'" font-size="23.7402">01</text>
<text transform="matrix(1 0 0 1 1129.1992 249.3758)" font-family="'MicrosoftYaHei'" font-size="23.7402">02</text>
<text transform="matrix(1 0 0 1 1065.6445 258.1156)" font-family="'MicrosoftYaHei'" font-size="23.7402">03</text>
<text transform="matrix(1 0 0 1 773.1416 258.1156)" font-family="'MicrosoftYaHei'" font-size="23.7402">08</text>
<text transform="matrix(1 0 0 1 707.9932 258.1156)" font-family="'MicrosoftYaHei'" font-size="23.7402">09</text>
<text transform="matrix(1 0 0 1 657.6924 258.1156)" font-family="'MicrosoftYaHei'" font-size="23.7402">10</text>
<text transform="matrix(1 0 0 1 545.5381 258.9091)" font-family="'MicrosoftYaHei'" font-size="23.7402">12</text>
<text transform="matrix(1 0 0 1 458.8335 258.1156)" font-family="'MicrosoftYaHei'" font-size="23.7402">13</text>
<line id="JT02" fill="none" stroke="#B3B3B3" stroke-width="25" stroke-miterlimit="10" x1="1110.1" y1="175.3" x2="1079.4" y2="175.3"/>
<line id="JT03" fill="none" stroke="#B3B3B3" stroke-width="25" stroke-miterlimit="10" x1="619.9" y1="202.5" x2="589" y2="202.5"/>
<line id="JT05" fill="none" stroke="#B3B3B3" stroke-width="25" stroke-miterlimit="10" x1="533.6" y1="371.9" x2="502.9" y2="371.9"/>
<line id="JT06" fill="none" stroke="#B3B3B3" stroke-width="25" stroke-miterlimit="10" x1="445.8" y1="371.9" x2="414.9" y2="371.9"/>
<line id="SEN01" fill="none" stroke="#B3B3B3" stroke-width="5" stroke-miterlimit="10" x1="896.3" y1="204.7" x2="896.3" y2="292.6"/>
<line id="SEN02" fill="none" stroke="#B3B3B3" stroke-width="5" stroke-miterlimit="10" x1="548.5" y1="205.5" x2="548.5" y2="293.4"/>
<line id="SEN03" fill="none" stroke="#B3B3B3" stroke-width="5" stroke-miterlimit="10" x1="458" y1="207.2" x2="458" y2="295.1"/>
<line id="SEN04" fill="none" stroke="#B3B3B3" stroke-width="5" stroke-miterlimit="10" x1="367.9" y1="207.2" x2="367.9" y2="295.1"/>
<line id="SEN05" fill="none" stroke="#B3B3B3" stroke-width="5" stroke-miterlimit="10" x1="276.3" y1="206.6" x2="276.3" y2="294.5"/>
<line id="SEN06" fill="none" stroke="#B3B3B3" stroke-width="5" stroke-miterlimit="10" x1="187.3" y1="204.1" x2="187.3" y2="292"/>
<line id="SEN07" fill="none" stroke="#B3B3B3" stroke-width="5" stroke-miterlimit="10" x1="127.6" y1="208.6" x2="127.6" y2="296.5"/>
<line id="HUACAO01" fill="none" stroke="#B3B3B3" stroke-width="30" stroke-miterlimit="10" x1="518.7" y1="265" x2="518.7" y2="339.8"/>
<line id="HUACAO02" fill="none" stroke="#B3B3B3" stroke-width="30" stroke-miterlimit="10" x1="429.8" y1="265" x2="429.8" y2="339.8"/>
<line id="HUACAO03" fill="none" stroke="#B3B3B3" stroke-width="30" stroke-miterlimit="10" x1="338.6" y1="264" x2="338.6" y2="338.8"/>
<line id="HUACAO04" fill="none" stroke="#B3B3B3" stroke-width="30" stroke-miterlimit="10" x1="249.5" y1="264.1" x2="249.5" y2="338.8"/>
<line id="HUACAO05" fill="none" stroke="#B3B3B3" stroke-width="30" stroke-miterlimit="10" x1="158.9" y1="264.1" x2="158.9" y2="338.8"/>
<line id="GE07" fill="none" stroke="#B3B3B3" stroke-width="20" stroke-miterlimit="10" x1="641.7" y1="248.9" x2="590.9" y2="248.9"/>
<text transform="matrix(1 0 0 1 604.3818 258.9091)" font-family="'MicrosoftYaHei'" font-size="23.7402">11</text>
<line id="RFID01" fill="none" stroke="#B3B3B3" stroke-width="30" stroke-miterlimit="10" x1="928.3" y1="248.7" x2="888.3" y2="248.7"/>
<line id="JT07" fill="none" stroke="#B3B3B3" stroke-width="25" stroke-miterlimit="10" x1="353.7" y1="371.9" x2="323" y2="371.9"/>
<line id="JT08" fill="none" stroke="#B3B3B3" stroke-width="25" stroke-miterlimit="10" x1="264.2" y1="371.9" x2="233.4" y2="371.9"/>
<line id="JT04" fill="none" stroke="#B3B3B3" stroke-width="25" stroke-miterlimit="10" x1="78" y1="220.3" x2="47.1" y2="220.3"/>
<line id="ZX00" fill="none" stroke="#B3B3B3" stroke-width="25" stroke-miterlimit="10" x1="92.3" y1="42.9" x2="68.9" y2="42.9"/>
<line id="FJMODE" fill="none" stroke="#B3B3B3" stroke-width="25" stroke-miterlimit="10" x1="342.9" y1="42.9" x2="319.5" y2="42.9"/>
<line id="BLOCKABLE" fill="none" stroke="#B3B3B3" stroke-width="25" stroke-miterlimit="10" x1="253.6" y1="42.9" x2="230.3" y2="42.9"/>
<line id="SLEEPABLE" fill="none" stroke="#B3B3B3" stroke-width="25" stroke-miterlimit="10" x1="175" y1="42.9" x2="151.6" y2="42.9"/>
<text transform="matrix(1 0 0 1 127.5518 76.5961)" font-family="'MicrosoftYaHei'" font-size="17.9936">休眠功能</text>
<text transform="matrix(1 0 0 1 44.5771 76.5961)" font-family="'MicrosoftYaHei'" font-size="17.9936">整线状态</text>
<text transform="matrix(1 0 0 1 208.3232 76.5961)" font-family="'MicrosoftYaHei'" font-size="17.9936">堵塞功能</text>
<text transform="matrix(1 0 0 1 293.3267 76.5961)" font-family="'MicrosoftYaHei'" font-size="17.9936">分拣模式</text>
<ellipse id="JT01" fill="none" stroke="#B3B3B3" stroke-width="16" stroke-miterlimit="10" cx="561.9" cy="461.6" rx="7.9" ry="3.6"/>
<ellipse id="BUTTON05" fill="none" stroke="#B3B3B3" stroke-width="16" stroke-miterlimit="10" cx="475.4" cy="461.3" rx="7.9" ry="3.6"/>
<text transform="matrix(1 0 0 1 416.0474 495.4994)" font-family="'MicrosoftYaHei'" font-size="18.4737">分拣模式按钮</text>
<text transform="matrix(1 0 0 1 540.3994 495.5004)" font-family="'MicrosoftYaHei'" font-size="18.4737">主柜急停01</text>
<line id="BIAODING" fill="none" stroke="#B3B3B3" stroke-width="25" stroke-miterlimit="10" x1="427.8" y1="43.9" x2="404.4" y2="43.9"/>
<text transform="matrix(1 0 0 1 378.9028 76.5961)" font-family="'MicrosoftYaHei'" font-size="17.9936">标定模式</text>
<text transform="matrix(1 0 0 1 500.9321 331.3919)" font-family="'MicrosoftYaHei'" font-size="17.9976">滑槽</text>
<text transform="matrix(1 0 0 1 409.7139 331.3919)" font-family="'MicrosoftYaHei'" font-size="17.9976">滑槽</text>
<text transform="matrix(1 0 0 1 317.0332 331.4437)" font-family="'MicrosoftYaHei'" font-size="17.9976">滑槽</text>
<text transform="matrix(1 0 0 1 230.3125 335.3929)" font-family="'MicrosoftYaHei'" font-size="17.9976">滑槽</text>
<text transform="matrix(1 0 0 1 138.9297 335.3929)" font-family="'MicrosoftYaHei'" font-size="17.9976">滑槽</text>
<line id="JT09" fill="none" stroke="#B3B3B3" stroke-width="25" stroke-miterlimit="10" x1="175.1" y1="371.9" x2="144.4" y2="371.9"/>
<text transform="matrix(1 0 0 1 1074.3818 211.0126)" font-family="'MicrosoftYaHei'" font-size="18.4737">急停01</text>
<text transform="matrix(1 0 0 1 582.1382 182.3519)" font-family="'MicrosoftYaHei'" font-size="18.4737">急停02</text>
<text transform="matrix(1 0 0 1 493.6479 409.2098)" font-family="'MicrosoftYaHei'" font-size="18.4737">摆轮急停1</text>
<text transform="matrix(1 0 0 1 393.77 408.8177)" font-family="'MicrosoftYaHei'" font-size="18.4737">摆轮急停2</text>
<text transform="matrix(1 0 0 1 37.2671 201.7499)" font-family="'MicrosoftYaHei'" font-size="18.4737">急停03</text>
<text transform="matrix(1 0 0 1 298.6777 407.909)" font-family="'MicrosoftYaHei'" font-size="18.4737">摆轮急停3</text>
<text transform="matrix(1 0 0 1 205.6631 407.909)" font-family="'MicrosoftYaHei'" font-size="18.4737">摆轮急停4</text>
<text transform="matrix(1 0 0 1 115.7197 407.909)" font-family="'MicrosoftYaHei'" font-size="18.4737">摆轮急停5</text>
<text transform="matrix(1 0 0 1 98.1304 202.1581)" font-family="'MicrosoftYaHei'" font-size="18.4737">PH11</text>
<text transform="matrix(1 0 0 1 168.7524 204.1771)" font-family="'MicrosoftYaHei'" font-size="18.4737">PH10</text>
<text transform="matrix(1 0 0 1 256.3618 201.6581)" font-family="'MicrosoftYaHei'" font-size="18.4737">PH09</text>
<text transform="matrix(1 0 0 1 350.0571 201.1078)" font-family="'MicrosoftYaHei'" font-size="18.4737">PH08</text>
<text transform="matrix(1 0 0 1 442.2588 201.1078)" font-family="'MicrosoftYaHei'" font-size="18.4737">PH07</text>
<text transform="matrix(1 0 0 1 527.6807 200.451)" font-family="'MicrosoftYaHei'" font-size="18.4737">PH06</text>
<text transform="matrix(1 0 0 1 878.0023 204.7861)" font-family="'MicrosoftYaHei'" font-size="18.4737">PH05</text>
<text transform="matrix(1 0 0 1 499.3345 224.7806)" font-family="'MicrosoftYaHei'" font-size="17.9976">摆轮1</text>
<text transform="matrix(1 0 0 1 405.7461 224.7806)" font-family="'MicrosoftYaHei'" font-size="17.9976">摆轮2</text>
<text transform="matrix(1 0 0 1 316.708 224.7806)" font-family="'MicrosoftYaHei'" font-size="17.9976">摆轮3</text>
<text transform="matrix(1 0 0 1 224.9375 225.7801)" font-family="'MicrosoftYaHei'" font-size="17.9976">摆轮4</text>
<text transform="matrix(1 0 0 1 135.9297 225.7801)" font-family="'MicrosoftYaHei'" font-size="17.9976">摆轮5</text>
<line id="GE10" fill="none" stroke="#B3B3B3" stroke-width="20" stroke-miterlimit="10" x1="408.6" y1="248.1" x2="360.5" y2="248.1"/>
<line id="GE11" fill="none" stroke="#B3B3B3" stroke-width="20" stroke-miterlimit="10" x1="319.5" y1="248.1" x2="271.3" y2="248.1"/>
<line id="GE12" fill="none" stroke="#B3B3B3" stroke-width="20" stroke-miterlimit="10" x1="229.4" y1="248.9" x2="181.2" y2="248.9"/>
<line id="GE13" fill="none" stroke="#B3B3B3" stroke-width="20" stroke-miterlimit="10" x1="139.5" y1="249.4" x2="91.3" y2="249.4"/>
<text transform="matrix(1 0 0 1 369.6855 258.1156)" font-family="'MicrosoftYaHei'" font-size="23.7402">14</text>
<text transform="matrix(1 0 0 1 278.5742 258.1156)" font-family="'MicrosoftYaHei'" font-size="23.7402">15</text>
<text transform="matrix(1 0 0 1 187.7832 258.9095)" font-family="'MicrosoftYaHei'" font-size="23.7402">16</text>
<text transform="matrix(1 0 0 1 98.0264 258.9095)" font-family="'MicrosoftYaHei'" font-size="23.7402">17</text>
</svg>
