<?xml version="1.0" encoding="utf-8"?>
<!-- Generator: Adobe Illustrator 18.1.1, SVG Export Plug-In . SVG Version: 6.00 Build 0)  -->
<svg version="1.1" id="图层_1" name="1ZD" xmlns="http://www.w3.org/2000/svg" xmlns:xlink="http://www.w3.org/1999/xlink" x="0px" y="0px"
	 viewBox="0 0 1190.6 841.9" enable-background="new 0 0 1190.6 841.9" xml:space="preserve">
<line id="SCANER01" fill="none" stroke="#B3B3B3" stroke-width="40" stroke-miterlimit="10" x1="453.5" y1="281.9" x2="513.9" y2="281.9"/>
<path id="ZD13" fill="none" stroke="#ABABAB" stroke-width="20" stroke-miterlimit="10" d="M40.7,324c0-22.4,12.5-40.8,27.7-40.8
	"/>
<line id="BL01" fill="none" stroke="#B3B3B3" stroke-width="30" stroke-miterlimit="10" x1="647.8" y1="283.4" x2="678.1" y2="283.4"/>
<line id="BL02" fill="none" stroke="#B3B3B3" stroke-width="30" stroke-miterlimit="10" x1="733.5" y1="284" x2="763.8" y2="284"/>
<line id="BL03" fill="none" stroke="#B3B3B3" stroke-width="30" stroke-miterlimit="10" x1="827.7" y1="284" x2="858" y2="284"/>
<line id="BL04" fill="none" stroke="#B3B3B3" stroke-width="30" stroke-miterlimit="10" x1="920.3" y1="284.2" x2="950.6" y2="284.2"/>
<line id="BL05" fill="none" stroke="#B3B3B3" stroke-width="30" stroke-miterlimit="10" x1="1031.7" y1="284.7" x2="1062" y2="284.7"/>
<text transform="matrix(1 0 0 1 897.3945 97.5926)" font-family="'MicrosoftYaHei'" font-size="59.9575">ZD</text>
<text transform="matrix(1 0 0 1 455.1836 330.9965)" font-family="'MicrosoftYaHei'" font-size="23.983">DWS</text>
<line id="JT02" fill="none" stroke="#B3B3B3" stroke-width="25" stroke-miterlimit="10" x1="171" y1="164" x2="171" y2="140.7"/>
<line id="JT03" fill="none" stroke="#B3B3B3" stroke-width="25" stroke-miterlimit="10" x1="135" y1="228.6" x2="135" y2="205.3"/>
<line id="JT04" fill="none" stroke="#B3B3B3" stroke-width="25" stroke-miterlimit="10" x1="131.8" y1="328.2" x2="131.8" y2="304.8"/>
<line id="JT05" fill="none" stroke="#B3B3B3" stroke-width="25" stroke-miterlimit="10" x1="310" y1="175.6" x2="310" y2="152.3"/>
<line id="JT06" fill="none" stroke="#B3B3B3" stroke-width="25" stroke-miterlimit="10" x1="289.3" y1="395.9" x2="289.3" y2="372.5"/>
<line id="SEN01" fill="none" stroke="#B3B3B3" stroke-width="10" stroke-miterlimit="10" x1="439.8" y1="249.8" x2="439.8" y2="316.4"/>
<line id="SEN02" fill="none" stroke="#B3B3B3" stroke-width="10" stroke-miterlimit="10" x1="641" y1="250.7" x2="641" y2="317.3"/>
<line id="SEN03" fill="none" stroke="#B3B3B3" stroke-width="10" stroke-miterlimit="10" x1="725" y1="248.2" x2="725" y2="314.8"/>
<line id="SEN04" fill="none" stroke="#B3B3B3" stroke-width="10" stroke-miterlimit="10" x1="821" y1="251.4" x2="821" y2="318"/>
<line id="SEN05" fill="none" stroke="#B3B3B3" stroke-width="10" stroke-miterlimit="10" x1="912" y1="249.5" x2="912" y2="316.1"/>
<line id="SEN06" fill="none" stroke="#B3B3B3" stroke-width="10" stroke-miterlimit="10" x1="1025" y1="251.4" x2="1025" y2="318"/>
<line id="SEN07" fill="none" stroke="#B3B3B3" stroke-width="10" stroke-miterlimit="10" x1="1116" y1="250.6" x2="1116" y2="317.2"/>
<line id="SEN08" fill="none" stroke="#B3B3B3" stroke-width="10" stroke-miterlimit="10" x1="1175" y1="251.4" x2="1175" y2="318"/>
<line id="HUACAO01" fill="none" stroke="#B3B3B3" stroke-width="30" stroke-miterlimit="10" x1="662.9" y1="264.6" x2="662.9" y2="207.9"/>
<line id="HUACAO02" fill="none" stroke="#B3B3B3" stroke-width="30" stroke-miterlimit="10" x1="662.9" y1="358.3" x2="662.9" y2="301.6"/>
<line id="HUACAO03" fill="none" stroke="#B3B3B3" stroke-width="30" stroke-miterlimit="10" x1="748.6" y1="264.6" x2="748.6" y2="207.9"/>
<line id="HUACAO04" fill="none" stroke="#B3B3B3" stroke-width="30" stroke-miterlimit="10" x1="748.6" y1="358.3" x2="748.6" y2="301.7"/>
<line id="HUACAO05" fill="none" stroke="#B3B3B3" stroke-width="30" stroke-miterlimit="10" x1="842.8" y1="266" x2="842.8" y2="209.4"/>
<line id="JT07" fill="none" stroke="#B3B3B3" stroke-width="25" stroke-miterlimit="10" x1="46" y1="407.5" x2="46" y2="384.2"/>
<line id="JT08" fill="none" stroke="#B3B3B3" stroke-width="25" stroke-miterlimit="10" x1="702.4" y1="259.6" x2="702.4" y2="236.3"/>
<line id="JT09" fill="none" stroke="#B3B3B3" stroke-width="25" stroke-miterlimit="10" x1="702.4" y1="335.8" x2="702.4" y2="312.4"/>
<line id="JT10" fill="none" stroke="#B3B3B3" stroke-width="25" stroke-miterlimit="10" x1="874.4" y1="247.9" x2="874.4" y2="224.6"/>
<line id="JT11" fill="none" stroke="#B3B3B3" stroke-width="25" stroke-miterlimit="10" x1="874.4" y1="335.8" x2="874.4" y2="312.4"/>
<line id="JT13" fill="none" stroke="#B3B3B3" stroke-width="25" stroke-miterlimit="10" x1="1086" y1="328.1" x2="1086" y2="304.8"/>
<line id="JT12" fill="none" stroke="#B3B3B3" stroke-width="25" stroke-miterlimit="10" x1="1087" y1="251" x2="1087" y2="227.7"/>
<ellipse id="JT01" fill="none" stroke="#B3B3B3" stroke-width="16" stroke-miterlimit="10" cx="427.2" cy="452.5" rx="6" ry="2.7"/>
<ellipse id="BUTTON05" fill="none" stroke="#B3B3B3" stroke-width="16" stroke-miterlimit="10" cx="381.7" cy="452.3" rx="6" ry="2.7"/>
<text transform="matrix(1 0 0 1 347.5845 478.103)" font-family="'MicrosoftYaHei'" font-size="13.9952">分拣模式</text>
<text transform="matrix(1 0 0 1 408.7945 478.1049)" font-family="'MicrosoftYaHei'" font-size="13.9952">主柜急停01</text>
<line id="ZD01" fill="none" stroke="#B3B3B3" stroke-width="20" stroke-miterlimit="10" x1="86" y1="185.9" x2="160" y2="185.9"/>
<line id="ZD03" fill="none" stroke="#B3B3B3" stroke-width="20" stroke-miterlimit="10" x1="88.3" y1="342.2" x2="162.3" y2="342.2"/>
<line id="ZD02" fill="none" stroke="#B3B3B3" stroke-width="20" stroke-miterlimit="10" x1="162.5" y1="257.5" x2="88.3" y2="257.5"/>
<path id="ZD09" fill="none" stroke="#ABABAB" stroke-width="20" stroke-miterlimit="10" d="M280.8,342.2c0,12.2-12.5,22.2-27.7,22.2
	"/>
<line id="ZD08" fill="none" stroke="#B3B3B3" stroke-width="20" stroke-miterlimit="10" x1="280.8" y1="340.2" x2="280.8" y2="216.9"/>
<path id="ZD07" fill="none" stroke="#ABABAB" stroke-width="20" stroke-miterlimit="10" d="M258.8,187.1c12.2,0,22.2,12.5,22.2,27.7
	"/>
<line id="ZD11" fill="none" stroke="#B3B3B3" stroke-width="20" stroke-miterlimit="10" x1="135" y1="365.6" x2="62.5" y2="365.6"/>
<line id="ZD10" fill="none" stroke="#B3B3B3" stroke-width="20" stroke-miterlimit="10" x1="250.7" y1="365.3" x2="136" y2="365.3"/>
<path id="ZD12" fill="none" stroke="#ABABAB" stroke-width="20" stroke-miterlimit="10" d="M61.6,364.3c-11.5,0-20.9-17.3-20.9-38.3
	"/>
<line id="ZD14" fill="none" stroke="#B3B3B3" stroke-width="20" stroke-miterlimit="10" x1="194.3" y1="283.1" x2="69.4" y2="283.1"/>
<line id="DJFL01" fill="none" stroke="#B3B3B3" stroke-width="40" stroke-miterlimit="10" x1="374" y1="281.5" x2="260.8" y2="281.5"/>
<line id="ZD15" fill="none" stroke="#B3B3B3" stroke-width="20" stroke-miterlimit="10" x1="260.8" y1="282.8" x2="195.4" y2="282.8"/>
<line id="ZD16" fill="none" stroke="#B3B3B3" stroke-width="20" stroke-miterlimit="10" x1="405.7" y1="282.1" x2="375.1" y2="282.1"/>
<line id="ZD20" fill="none" stroke="#B3B3B3" stroke-width="20" stroke-miterlimit="10" x1="646.4" y1="283.2" x2="610.6" y2="283.2"/>
<line id="ZD21" fill="none" stroke="#B3B3B3" stroke-width="20" stroke-miterlimit="10" x1="732.2" y1="284.1" x2="679.1" y2="284.1"/>
<line id="ZD22" fill="none" stroke="#B3B3B3" stroke-width="20" stroke-miterlimit="10" x1="826.6" y1="284.2" x2="764.8" y2="284.2"/>
<line id="ZD24" fill="none" stroke="#B3B3B3" stroke-width="20" stroke-miterlimit="10" x1="1031" y1="283.2" x2="951.6" y2="283.2"/>
<line id="ZD23" fill="none" stroke="#B3B3B3" stroke-width="20" stroke-miterlimit="10" x1="918.3" y1="284.4" x2="859.1" y2="284.4"/>
<line id="ZD25" fill="none" stroke="#B3B3B3" stroke-width="20" stroke-miterlimit="10" x1="1124.1" y1="284.2" x2="1064" y2="284.2"/>
<text transform="matrix(1 0 0 1 694.3721 290.3832)" font-family="'MicrosoftYaHei'" font-size="17.9848">22</text>
<text transform="matrix(1 0 0 1 788.4795 291.4857)" font-family="'MicrosoftYaHei'" font-size="17.9848">23</text>
<text transform="matrix(1 0 0 1 113.7119 193.8309)" font-family="'MicrosoftYaHei'" font-size="17.9848">01</text>
<text transform="matrix(1 0 0 1 109.2856 262.5345)" font-family="'MicrosoftYaHei'" font-size="17.9848">02</text>
<text transform="matrix(1 0 0 1 113.7124 349.1888)" font-family="'MicrosoftYaHei'" font-size="17.9848">03</text>
<text transform="matrix(1 0 0 1 35.5591 353.2484)" font-family="'MicrosoftYaHei'" font-size="17.9848">10</text>
<text transform="matrix(1 0 0 1 109.1685 290.3832)" font-family="'MicrosoftYaHei'" font-size="17.9848">12-1</text>
<text transform="matrix(1 0 0 1 210.4097 290.3832)" font-family="'MicrosoftYaHei'" font-size="17.9848">12</text>
<text transform="matrix(1 0 0 1 378.0894 288.2845)" font-family="'MicrosoftYaHei'" font-size="17.9848">17</text>
<text transform="matrix(1 0 0 1 618.2969 289.3832)" font-family="'MicrosoftYaHei'" font-size="17.9848">21</text>
<text transform="matrix(1 0 0 1 863.7822 290.1986)" font-family="'MicrosoftYaHei'" font-size="17.9848">24</text>
<text transform="matrix(1 0 0 1 979.0771 291.4862)" font-family="'MicrosoftYaHei'" font-size="17.9848">25</text>
<text transform="matrix(1 0 0 1 1080.6895 292.3832)" font-family="'MicrosoftYaHei'" font-size="17.9848">26</text>
<line id="ZX00" fill="none" stroke="#B3B3B3" stroke-width="25" stroke-miterlimit="10" x1="99.3" y1="53.4" x2="75.9" y2="53.4"/>
<line id="FJMODE" fill="none" stroke="#B3B3B3" stroke-width="25" stroke-miterlimit="10" x1="349.9" y1="53.4" x2="326.5" y2="53.4"/>
<line id="BLOCKABLE" fill="none" stroke="#B3B3B3" stroke-width="25" stroke-miterlimit="10" x1="260.6" y1="53.4" x2="237.3" y2="53.4"/>
<line id="SLEEPABLE" fill="none" stroke="#B3B3B3" stroke-width="25" stroke-miterlimit="10" x1="182" y1="53.4" x2="158.6" y2="53.4"/>
<text transform="matrix(1 0 0 1 134.5454 87.0814)" font-family="'MicrosoftYaHei'" font-size="17.9936">休眠功能</text>
<text transform="matrix(1 0 0 1 51.5708 87.0814)" font-family="'MicrosoftYaHei'" font-size="17.9936">整线状态</text>
<text transform="matrix(1 0 0 1 215.3169 87.0814)" font-family="'MicrosoftYaHei'" font-size="17.9936">堵塞功能</text>
<text transform="matrix(1 0 0 1 300.3203 87.0814)" font-family="'MicrosoftYaHei'" font-size="17.9936">分拣模式</text>
<line id="BIAODING" fill="none" stroke="#B3B3B3" stroke-width="25" stroke-miterlimit="10" x1="434.8" y1="54.4" x2="411.4" y2="54.4"/>
<text transform="matrix(1 0 0 1 385.8984 87.0814)" font-family="'MicrosoftYaHei'" font-size="17.9936">标定模式</text>
<text transform="matrix(1 0 0 1 289.3208 288.2845)" font-family="'MicrosoftYaHei'" font-size="17.9976">单间分离</text>
<line id="ZD04" fill="none" stroke="#B3B3B3" stroke-width="20" stroke-miterlimit="10" x1="173.7" y1="384.2" x2="173.7" y2="197.2"/>
<line id="ZD05" fill="none" stroke="#B3B3B3" stroke-width="20" stroke-miterlimit="10" x1="193.3" y1="186.1" x2="162.7" y2="186.1"/>
<line id="ZD06" fill="none" stroke="#B3B3B3" stroke-width="20" stroke-miterlimit="10" x1="257.1" y1="186.1" x2="195.3" y2="186.1"/>
<text transform="matrix(1 0 0 1 219.5786 193.8309)" font-family="'MicrosoftYaHei'" font-size="17.9848">05</text>
<text transform="matrix(1 0 0 1 267.8369 203.1752)" font-family="'MicrosoftYaHei'" font-size="17.9848">06</text>
<text transform="matrix(1 0 0 1 269.8364 253.994)" font-family="'MicrosoftYaHei'" font-size="17.9848">07</text>
<text transform="matrix(1 0 0 1 258.7383 364.62)" font-family="'MicrosoftYaHei'" font-size="17.9848">08</text>
<text transform="matrix(1 0 0 1 89.2861 372.6244)" font-family="'MicrosoftYaHei'" font-size="17.9848">09</text>
<text transform="matrix(1 0 0 1 35.5596 308.3798)" font-family="'MicrosoftYaHei'" font-size="17.9848">11</text>
<line id="BL06" fill="none" stroke="#B3B3B3" stroke-width="30" stroke-miterlimit="10" x1="1123.7" y1="283.9" x2="1154" y2="283.9"/>
<line id="HUACAO06" fill="none" stroke="#B3B3B3" stroke-width="30" stroke-miterlimit="10" x1="842.8" y1="358.3" x2="842.8" y2="301.7"/>
<text transform="matrix(1 0 0 1 162.6772 239.3578)" font-family="'MicrosoftYaHei'" font-size="17.9848">4A</text>
<text transform="matrix(1 0 0 1 164.6768 192.1137)" font-family="'MicrosoftYaHei'" font-size="17.9848">4B</text>
<line id="ZD17" fill="none" stroke="#B3B3B3" stroke-width="20" stroke-miterlimit="10" x1="452.3" y1="282.2" x2="406.7" y2="282.2"/>
<line id="ZD18" fill="none" stroke="#B3B3B3" stroke-width="20" stroke-miterlimit="10" x1="564" y1="283.2" x2="515.6" y2="283.2"/>
<line id="ZD19" fill="none" stroke="#B3B3B3" stroke-width="20" stroke-miterlimit="10" x1="609.6" y1="282.8" x2="564.3" y2="282.8"/>
<text transform="matrix(1 0 0 1 575.9868 289.4862)" font-family="'MicrosoftYaHei'" font-size="17.9848">20</text>
<line id="ZD26" fill="none" stroke="#B3B3B3" stroke-width="20" stroke-miterlimit="10" x1="1185.1" y1="284.1" x2="1154.5" y2="284.1"/>
<text transform="matrix(1 0 0 1 1160.6602 294.3831)" font-family="'MicrosoftYaHei'" font-size="17.9848">27</text>
<text transform="matrix(1 0 0 1 194.2729 372.6244)" font-family="'MicrosoftYaHei'" font-size="17.9848">09-1</text>
<text transform="matrix(1 0 0 1 412.7456 288.2845)" font-family="'MicrosoftYaHei'" font-size="17.9848">18</text>
<text transform="matrix(1 0 0 1 520.832 290.3832)" font-family="'MicrosoftYaHei'" font-size="17.9848">20-1</text>
<line id="HUACAO07" fill="none" stroke="#B3B3B3" stroke-width="30" stroke-miterlimit="10" x1="935.4" y1="266" x2="935.4" y2="209.4"/>
<line id="HUACAO08" fill="none" stroke="#B3B3B3" stroke-width="30" stroke-miterlimit="10" x1="935.4" y1="358.3" x2="935.4" y2="301.7"/>
<line id="HUACAO09" fill="none" stroke="#B3B3B3" stroke-width="30" stroke-miterlimit="10" x1="1046.8" y1="266.5" x2="1046.8" y2="209.9"/>
<line id="HUACAO10" fill="none" stroke="#B3B3B3" stroke-width="30" stroke-miterlimit="10" x1="1046.8" y1="358.3" x2="1046.8" y2="301.7"/>
<line id="HUACAO11" fill="none" stroke="#B3B3B3" stroke-width="30" stroke-miterlimit="10" x1="1138.8" y1="266" x2="1138.8" y2="209.4"/>
<line id="HUACAO12" fill="none" stroke="#B3B3B3" stroke-width="30" stroke-miterlimit="10" x1="1138.8" y1="356.5" x2="1138.8" y2="299.9"/>
<line id="JT14" fill="none" stroke="#B3B3B3" stroke-width="25" stroke-miterlimit="10" x1="647.8" y1="423.9" x2="647.8" y2="400.6"/>
<line id="JT15" fill="none" stroke="#B3B3B3" stroke-width="25" stroke-miterlimit="10" x1="744" y1="423.9" x2="744" y2="400.6"/>
<line id="JT16" fill="none" stroke="#B3B3B3" stroke-width="25" stroke-miterlimit="10" x1="842.8" y1="423.9" x2="842.8" y2="400.6"/>
<line id="JT17" fill="none" stroke="#B3B3B3" stroke-width="25" stroke-miterlimit="10" x1="935.4" y1="423.9" x2="935.4" y2="400.6"/>
<line id="JT18" fill="none" stroke="#B3B3B3" stroke-width="25" stroke-miterlimit="10" x1="1046.8" y1="423.9" x2="1046.8" y2="400.6"/>
<line id="JT19" fill="none" stroke="#B3B3B3" stroke-width="25" stroke-miterlimit="10" x1="1143" y1="423.9" x2="1143" y2="400.6"/>
<text transform="matrix(1 0 0 1 152.5934 134.2181)" font-family="'MicrosoftYaHei'" font-size="13.9952">急停02</text>
<text transform="matrix(1 0 0 1 69.3971 224.6028)" font-family="'MicrosoftYaHei'" font-size="13.9952">急停03</text>
<text transform="matrix(1 0 0 1 71.8969 322.1994)" font-family="'MicrosoftYaHei'" font-size="13.9952">急停04</text>
<text transform="matrix(1 0 0 1 289.3208 144.2181)" font-family="'MicrosoftYaHei'" font-size="13.9952">急停05</text>
<text transform="matrix(1 0 0 1 269.8887 412.2181)" font-family="'MicrosoftYaHei'" font-size="13.9952">急停06</text>
<text transform="matrix(1 0 0 1 27.4795 420.945)" font-family="'MicrosoftYaHei'" font-size="13.9952">急停07</text>
<text transform="matrix(1 0 0 1 681.4795 229.6031)" font-family="'MicrosoftYaHei'" font-size="13.9952">急停08</text>
<text transform="matrix(1 0 0 1 681.4796 349.1888)" font-family="'MicrosoftYaHei'" font-size="13.9952">急停09</text>
<text transform="matrix(1 0 0 1 863.7821 217.9536)" font-family="'MicrosoftYaHei'" font-size="13.9952">急停10</text>
<text transform="matrix(1 0 0 1 863.7824 349.1889)" font-family="'MicrosoftYaHei'" font-size="13.9952">急停11</text>
<text transform="matrix(1 0 0 1 1068.4795 222.6032)" font-family="'MicrosoftYaHei'" font-size="13.9952">急停12</text>
<text transform="matrix(1 0 0 1 1072.9696 342.1983)" font-family="'MicrosoftYaHei'" font-size="13.9952">急停13</text>
<text transform="matrix(1 0 0 1 423.0823 244.2181)" font-family="'MicrosoftYaHei'" font-size="13.9952">PH16</text>
<text transform="matrix(1 0 0 1 640.9731 203.1752)" font-family="'MicrosoftYaHei'" font-size="13.9952">滑槽01</text>
<text transform="matrix(1 0 0 1 635.9731 372.497)" font-family="'MicrosoftYaHei'" font-size="13.9952">滑槽02</text>
<text transform="matrix(1 0 0 1 724.9695 205.304)" font-family="'MicrosoftYaHei'" font-size="13.9952">滑槽03</text>
<text transform="matrix(1 0 0 1 724.9697 372.4971)" font-family="'MicrosoftYaHei'" font-size="13.9952">滑槽04</text>
<text transform="matrix(1 0 0 1 820.9655 203.1752)" font-family="'MicrosoftYaHei'" font-size="13.9952">滑槽05</text>
<text transform="matrix(1 0 0 1 820.9655 372.497)" font-family="'MicrosoftYaHei'" font-size="13.9952">滑槽06</text>
<text transform="matrix(1 0 0 1 645.7728 288.2844)" font-family="'MicrosoftYaHei'" font-size="13.9952">摆轮01</text>
<text transform="matrix(1 0 0 1 911.9619 203.1752)" font-family="'MicrosoftYaHei'" font-size="13.9952">滑槽07</text>
<text transform="matrix(1 0 0 1 911.9619 372.6245)" font-family="'MicrosoftYaHei'" font-size="13.9952">滑槽08</text>
<text transform="matrix(1 0 0 1 1030.9568 203.1752)" font-family="'MicrosoftYaHei'" font-size="13.9952">滑槽09</text>
<text transform="matrix(1 0 0 1 1024.957 372.4971)" font-family="'MicrosoftYaHei'" font-size="13.9952">滑槽10</text>
<text transform="matrix(1 0 0 1 1120.6528 203.3041)" font-family="'MicrosoftYaHei'" font-size="13.9952">滑槽11</text>
<text transform="matrix(1 0 0 1 1111.9619 372.4971)" font-family="'MicrosoftYaHei'" font-size="13.9952">滑槽12</text>
<text transform="matrix(1 0 0 1 599.375 244.218)" font-family="'MicrosoftYaHei'" font-size="13.9952">PH17</text>
<text transform="matrix(1 0 0 1 781.0823 247.9022)" font-family="'MicrosoftYaHei'" font-size="13.9952">PH19</text>
<text transform="matrix(1 0 0 1 991.2586 247.9022)" font-family="'MicrosoftYaHei'" font-size="13.9952">PH21</text>
<text transform="matrix(1 0 0 1 1153.9514 247.9018)" font-family="'MicrosoftYaHei'" font-size="13.9952">PH23</text>
<text transform="matrix(1 0 0 1 918.2613 288.2844)" font-family="'MicrosoftYaHei'" font-size="13.9952">摆轮04</text>
<text transform="matrix(1 0 0 1 610.5744 442.2072)" font-family="'MicrosoftYaHei'" font-size="13.9952">摆轮急停14</text>
<text transform="matrix(1 0 0 1 712.7446 440.5073)" font-family="'MicrosoftYaHei'" font-size="13.9952">摆轮急停15</text>
<text transform="matrix(1 0 0 1 816.5349 442.2072)" font-family="'MicrosoftYaHei'" font-size="13.9952">摆轮急停16</text>
<text transform="matrix(1 0 0 1 906.2179 440.5069)" font-family="'MicrosoftYaHei'" font-size="13.9952">摆轮急停17</text>
<text transform="matrix(1 0 0 1 1009.549 440.5064)" font-family="'MicrosoftYaHei'" font-size="13.9952">摆轮急停18</text>
<text transform="matrix(1 0 0 1 1101.5491 440.5067)" font-family="'MicrosoftYaHei'" font-size="13.9952">摆轮急停19</text>
</svg>
