<?xml version="1.0" encoding="utf-8"?>
<!-- Generator: Adobe Illustrator 18.1.1, SVG Export Plug-In . SVG Version: 6.00 Build 0)  -->
<svg version="1.1" id="图层_1" name="GD" xmlns="http://www.w3.org/2000/svg" xmlns:xlink="http://www.w3.org/1999/xlink" x="0px" y="0px"
	 viewBox="0 0 1190.6 841.9" enable-background="new 0 0 1190.6 841.9" xml:space="preserve">
<path id="GD12" fill="none" stroke="#ABABAB" stroke-width="20" stroke-miterlimit="10" d="M956.5,234.6c15.5,0,28.1,13.5,28.1,29.9
	"/>
<line id="GD13" fill="none" stroke="#B3B3B3" stroke-width="20" stroke-miterlimit="10" x1="954.7" y1="234.3" x2="889.6" y2="234.3"/>
<line id="BL01" fill="none" stroke="#B3B3B3" stroke-width="30" stroke-miterlimit="10" x1="861.5" y1="234.3" x2="888.7" y2="234.3"/>
<line id="GD15" fill="none" stroke="#B3B3B3" stroke-width="20" stroke-miterlimit="10" x1="730.7" y1="234.3" x2="644.8" y2="234.3"/>
<line id="BL02" fill="none" stroke="#B3B3B3" stroke-width="30" stroke-miterlimit="10" x1="732.7" y1="234.3" x2="764.9" y2="234.3"/>
<line id="BL03" fill="none" stroke="#B3B3B3" stroke-width="30" stroke-miterlimit="10" x1="617" y1="234.3" x2="644.3" y2="234.3"/>
<line id="GD14" fill="none" stroke="#B3B3B3" stroke-width="20" stroke-miterlimit="10" x1="859.6" y1="234.3" x2="765.6" y2="234.3"/>
<line id="GD16" fill="none" stroke="#B3B3B3" stroke-width="20" stroke-miterlimit="10" x1="615.5" y1="234.3" x2="534.6" y2="234.3"/>
<line id="BL04" fill="none" stroke="#B3B3B3" stroke-width="30" stroke-miterlimit="10" x1="507" y1="234.3" x2="534.3" y2="234.3"/>
<line id="GD17" fill="none" stroke="#B3B3B3" stroke-width="20" stroke-miterlimit="10" x1="505.3" y1="234.3" x2="414" y2="234.3"/>
<line id="BL05" fill="none" stroke="#B3B3B3" stroke-width="30" stroke-miterlimit="10" x1="386.2" y1="234.3" x2="413.5" y2="234.3"/>
<line id="GD18" fill="none" stroke="#B3B3B3" stroke-width="20" stroke-miterlimit="10" x1="384.2" y1="234.3" x2="302.8" y2="234.3"/>
<line id="BL06" fill="none" stroke="#B3B3B3" stroke-width="30" stroke-miterlimit="10" x1="275.2" y1="234.3" x2="302.5" y2="234.3"/>
<line id="GD19" fill="none" stroke="#B3B3B3" stroke-width="20" stroke-miterlimit="10" x1="274.2" y1="234.3" x2="234.5" y2="234.3"/>
<line id="HUACAO01" fill="none" stroke="#B3B3B3" stroke-width="30" stroke-miterlimit="10" x1="875.3" y1="250.7" x2="875.3" y2="301.7"/>
<line id="HUACAO02" fill="none" stroke="#B3B3B3" stroke-width="30" stroke-miterlimit="10" x1="748.7" y1="250.6" x2="748.7" y2="301.5"/>
<line id="HUACAO03" fill="none" stroke="#B3B3B3" stroke-width="30" stroke-miterlimit="10" x1="630.7" y1="250.6" x2="630.7" y2="301.6"/>
<line id="HUACAO04" fill="none" stroke="#B3B3B3" stroke-width="30" stroke-miterlimit="10" x1="519.9" y1="250.6" x2="519.9" y2="301.6"/>
<line id="HUACAO05" fill="none" stroke="#B3B3B3" stroke-width="30" stroke-miterlimit="10" x1="398.9" y1="250.6" x2="398.9" y2="301.6"/>
<line id="HUACAO06" fill="none" stroke="#B3B3B3" stroke-width="30" stroke-miterlimit="10" x1="288.9" y1="250.6" x2="288.9" y2="301.6"/>
<line id="SEN02" fill="none" stroke="#B3B3B3" stroke-width="5" stroke-miterlimit="10" x1="896" y1="264.5" x2="896" y2="204.6"/>
<line id="SEN03" fill="none" stroke="#B3B3B3" stroke-width="5" stroke-miterlimit="10" x1="773.4" y1="264.5" x2="773.4" y2="204.7"/>
<line id="SEN04" fill="none" stroke="#B3B3B3" stroke-width="5" stroke-miterlimit="10" x1="652.3" y1="264.5" x2="652.3" y2="204.7"/>
<line id="SEN05" fill="none" stroke="#B3B3B3" stroke-width="5" stroke-miterlimit="10" x1="541.9" y1="264.3" x2="541.9" y2="204.5"/>
<line id="SEN07" fill="none" stroke="#B3B3B3" stroke-width="5" stroke-miterlimit="10" x1="309.2" y1="264.3" x2="309.2" y2="204.5"/>
<text transform="matrix(1 0 0 1 275.2398 457.1414)" font-family="'MicrosoftYaHei'" font-size="13.988">急停02</text>
<line id="SEN06" fill="none" stroke="#B3B3B3" stroke-width="5" stroke-miterlimit="10" x1="420.7" y1="264.5" x2="420.7" y2="204.7"/>
<text transform="matrix(0.9487 0 0 1 964.3786 247.0119)" font-family="'MicrosoftYaHei'" font-size="19.1363">15</text>
<text transform="matrix(1 0 0 1 902.972 240.177)" font-family="'MicrosoftYaHei'" font-size="17.9752">16</text>
<text transform="matrix(1.1771 0 0 1 781.0566 240.2466)" font-family="'MicrosoftYaHei'" font-size="17.9752">17</text>
<text transform="matrix(1 0 0 1 658.7191 240.2464)" font-family="'MicrosoftYaHei'" font-size="17.9752">18</text>
<text transform="matrix(1 0 0 1 549.6301 240.2464)" font-family="'MicrosoftYaHei'" font-size="17.9752">19</text>
<text transform="matrix(1 0 0 1 431.2776 240.2464)" font-family="'MicrosoftYaHei'" font-size="17.9752">20</text>
<text transform="matrix(1 0 0 1 314.5804 240.2464)" font-family="'MicrosoftYaHei'" font-size="17.9752">21</text>
<text transform="matrix(1 0 0 1 254.264 240.2464)" font-family="'MicrosoftYaHei'" font-size="17.9752">22</text>
<text transform="matrix(1 0 0 1 855.6407 314.9753)" font-family="'MicrosoftYaHei'" font-size="13.988">滑槽01</text>
<text transform="matrix(1 0 0 1 727.0489 314.9754)" font-family="'MicrosoftYaHei'" font-size="13.988">滑槽02</text>
<text transform="matrix(1.1771 0 0 1 600.8583 318.0756)" font-family="'MicrosoftYaHei'" font-size="13.988">滑槽03</text>
<text transform="matrix(1 0 0 1 375.2554 317.6796)" font-family="'MicrosoftYaHei'" font-size="13.988">滑槽05</text>
<text transform="matrix(1 0 0 1 889.4438 279.1433)" font-family="'MicrosoftYaHei'" font-size="13.988">PH09</text>
<text transform="matrix(1.1771 0 0 1 765.3799 279.2129)" font-family="'MicrosoftYaHei'" font-size="13.988">PH10</text>
<text transform="matrix(1 0 0 1 644.5843 279.2128)" font-family="'MicrosoftYaHei'" font-size="13.988">PH11</text>
<text transform="matrix(1 0 0 1 534.474 279.2128)" font-family="'MicrosoftYaHei'" font-size="13.988">PH12</text>
<text transform="matrix(1 0 0 1 413.3743 279.2128)" font-family="'MicrosoftYaHei'" font-size="13.988">PH13</text>
<text transform="matrix(1 0 0 1 302.7826 279.2128)" font-family="'MicrosoftYaHei'" font-size="13.988">PH14</text>
<text transform="matrix(1 0 0 1 234.4251 279.2128)" font-family="'MicrosoftYaHei'" font-size="13.988">PH15</text>
<text transform="matrix(1.1771 0 0 1 494.144 318.0755)" font-family="'MicrosoftYaHei'" font-size="13.988">滑槽04</text>
<text transform="matrix(1 0 0 1 269.4267 317.0358)" font-family="'MicrosoftYaHei'" font-size="13.988">滑槽06</text>
<text transform="matrix(1 0 0 1 812.6126 301.5421)" font-family="'MicrosoftYaHei'" font-size="13.988">急停05</text>
<text transform="matrix(1 0 0 1 678.6693 294.4854)" font-family="'MicrosoftYaHei'" font-size="13.988">急停06</text>
<text transform="matrix(1 0 0 1 560.9215 180.964)" font-family="'MicrosoftYaHei'" font-size="13.988">急停07</text>
<text transform="matrix(1 0 0 1 450.2845 291.35)" font-family="'MicrosoftYaHei'" font-size="13.988">急停08</text>
<line id="ZX00" fill="none" stroke="#B3B3B3" stroke-width="25" stroke-miterlimit="10" x1="72.7" y1="41" x2="49.3" y2="41"/>
<line id="FJMODE" fill="none" stroke="#B3B3B3" stroke-width="25" stroke-miterlimit="10" x1="323.3" y1="41" x2="299.9" y2="41"/>
<line id="BLOCKABLE" fill="none" stroke="#B3B3B3" stroke-width="25" stroke-miterlimit="10" x1="234" y1="41" x2="210.7" y2="41"/>
<line id="SLEEPABLE" fill="none" stroke="#B3B3B3" stroke-width="25" stroke-miterlimit="10" x1="155.4" y1="41" x2="132" y2="41"/>
<text transform="matrix(1 0 0 1 107.9166 74.7786)" font-family="'MicrosoftYaHei'" font-size="17.984">休眠功能</text>
<text transform="matrix(1 0 0 1 24.983 74.7786)" font-family="'MicrosoftYaHei'" font-size="17.984">整线状态</text>
<text transform="matrix(1 0 0 1 188.6471 74.7786)" font-family="'MicrosoftYaHei'" font-size="17.984">堵塞功能</text>
<text transform="matrix(1 0 0 1 273.6085 74.7786)" font-family="'MicrosoftYaHei'" font-size="17.984">分拣模式</text>
<line id="BIAODING" fill="none" stroke="#B3B3B3" stroke-width="25" stroke-miterlimit="10" x1="408.2" y1="42" x2="384.8" y2="42"/>
<text transform="matrix(1 0 0 1 359.1437 74.7786)" font-family="'MicrosoftYaHei'" font-size="17.984">标定模式</text>
<line id="GD02" fill="none" stroke="#B3B3B3" stroke-width="20" stroke-miterlimit="10" x1="163.8" y1="448.6" x2="163.8" y2="533.2"/>
<path id="GD03" fill="none" stroke="#ABABAB" stroke-width="20" stroke-miterlimit="10" d="M163.7,447.2c0-16.4,12.6-29.9,28.1-29.9
	"/>
<line id="GD04" fill="none" stroke="#B3B3B3" stroke-width="20" stroke-miterlimit="10" x1="331.8" y1="417.4" x2="194.3" y2="417.4"/>
<line id="DJFL01" fill="none" stroke="#B3B3B3" stroke-width="40" stroke-miterlimit="10" x1="614.3" y1="417.3" x2="464.8" y2="417.3"/>
<line id="GD06" fill="none" stroke="#B3B3B3" stroke-width="20" stroke-miterlimit="10" x1="704.5" y1="417.3" x2="615.7" y2="417.3"/>
<line id="GD07" fill="none" stroke="#B3B3B3" stroke-width="20" stroke-miterlimit="10" x1="785.8" y1="417.3" x2="707" y2="417.3"/>
<line id="GD08" fill="none" stroke="#B3B3B3" stroke-width="20" stroke-miterlimit="10" x1="896" y1="417.3" x2="828.3" y2="417.3"/>
<line id="GD09" fill="none" stroke="#B3B3B3" stroke-width="20" stroke-miterlimit="10" x1="954.4" y1="417.3" x2="896.9" y2="417.3"/>
<path id="GD10" fill="none" stroke="#ABABAB" stroke-width="20" stroke-miterlimit="10" d="M985.2,389.6c0,15.5-13.5,28.1-29.9,28.1
	"/>
<line id="GD11" fill="none" stroke="#B3B3B3" stroke-width="20" stroke-miterlimit="10" x1="985.2" y1="265.7" x2="985.2" y2="388.3"/>
<line id="SEN01" fill="none" stroke="#B3B3B3" stroke-width="5" stroke-miterlimit="10" x1="778" y1="448.3" x2="778" y2="388.3"/>
<line id="SCANER01" fill="none" stroke="#B3B3B3" stroke-width="40" stroke-miterlimit="10" x1="786.7" y1="418.3" x2="827.8" y2="418.3"/>
<text transform="matrix(1 0 0 1 94.537 423.5782)" font-family="'MicrosoftYaHei'" font-size="13.988">急停01</text>
<line id="GD05" fill="none" stroke="#B3B3B3" stroke-width="20" stroke-miterlimit="10" x1="464.1" y1="417.4" x2="333.8" y2="417.4"/>
<text transform="matrix(1 0 0 1 504.6644 423.5782)" font-family="'MicrosoftYaHei'" font-size="17.988">单件分离</text>
<text transform="matrix(1 0 0 1 786.7532 393.551)" font-family="'MicrosoftYaHei'" font-size="17.9952">六面扫</text>
<text transform="matrix(1 0 0 1 235.1175 423.5782)" font-family="'MicrosoftYaHei'" font-size="17.9752">03</text>
<text transform="matrix(1 0 0 1 395.2991 423.5782)" font-family="'MicrosoftYaHei'" font-size="17.9752">04</text>
<text transform="matrix(1 0 0 1 657.887 423.5782)" font-family="'MicrosoftYaHei'" font-size="17.9752">09</text>
<text transform="matrix(1 0 0 1 738.8958 423.5782)" font-family="'MicrosoftYaHei'" font-size="17.9752">10</text>
<text transform="matrix(1 0 0 1 848.0334 423.5782)" font-family="'MicrosoftYaHei'" font-size="17.9752">11</text>
<text transform="matrix(1 0 0 1 912.7337 423.5782)" font-family="'MicrosoftYaHei'" font-size="17.9752">12</text>
<text transform="matrix(1 0 0 1 965.5804 414.6249)" font-family="'MicrosoftYaHei'" font-size="17.9752">13</text>
<text transform="matrix(1 0 0 1 747.0208 384.3527)" font-family="'MicrosoftYaHei'" font-size="13.988">PH07</text>
<text transform="matrix(1 0 0 1 159.3479 432.3165)" font-family="'MicrosoftYaHei'" font-size="17.9752">02</text>
<line id="SEN08" fill="none" stroke="#B3B3B3" stroke-width="5" stroke-miterlimit="10" x1="247.3" y1="264.2" x2="247.3" y2="204.3"/>
<line id="GD01" fill="none" stroke="#B3B3B3" stroke-width="20" stroke-miterlimit="10" x1="163.7" y1="534.2" x2="163.7" y2="622.4"/>
<text transform="matrix(1 0 0 1 155.4102 492.0382)" font-family="'MicrosoftYaHei'" font-size="17.9752">01</text>
<text transform="matrix(1 0 0 1 142.4102 586.1413)" font-family="'MicrosoftYaHei'" font-size="17.9752">01-1</text>
<text transform="matrix(0.9487 0 0 1 973.2549 332.9397)" font-family="'MicrosoftYaHei'" font-size="19.1363">14</text>
<ellipse id="JT01" fill="none" stroke="#B3B3B3" stroke-width="16" stroke-miterlimit="10" cx="600.4" cy="488.2" rx="6" ry="2.7"/>
<ellipse id="BUTTON05" fill="none" stroke="#B3B3B3" stroke-width="16" stroke-miterlimit="10" cx="554.9" cy="488" rx="6" ry="2.7"/>
<text transform="matrix(1 0 0 1 520.6833 513.8362)" font-family="'MicrosoftYaHei'" font-size="13.988">分拣模式</text>
<text transform="matrix(1 0 0 1 581.8625 513.8381)" font-family="'MicrosoftYaHei'" font-size="13.988">主柜急停01</text>
<line id="JT02" fill="none" stroke="#B3B3B3" stroke-width="12" stroke-miterlimit="10" x1="132" y1="432.3" x2="119.7" y2="432.3"/>
<line id="JT03" fill="none" stroke="#B3B3B3" stroke-width="12" stroke-miterlimit="10" x1="306.1" y1="437.9" x2="293.8" y2="437.9"/>
<line id="JT04" fill="none" stroke="#B3B3B3" stroke-width="12" stroke-miterlimit="10" x1="443.6" y1="393.6" x2="431.3" y2="393.6"/>
<line id="JT05" fill="none" stroke="#B3B3B3" stroke-width="12" stroke-miterlimit="10" x1="1009.9" y1="240.2" x2="997.6" y2="240.2"/>
<line id="JT06" fill="none" stroke="#B3B3B3" stroke-width="12" stroke-miterlimit="10" x1="848" y1="276.1" x2="835.7" y2="276.1"/>
<line id="JT07" fill="none" stroke="#B3B3B3" stroke-width="12" stroke-miterlimit="10" x1="710.7" y1="271.9" x2="698.4" y2="271.9"/>
<text transform="matrix(1 0 0 1 414.0352 384.3525)" font-family="'MicrosoftYaHei'" font-size="13.988">急停03</text>
<text transform="matrix(1 0 0 1 1015.2708 245.2464)" font-family="'MicrosoftYaHei'" font-size="13.988">急停04</text>
<line id="JT08" fill="none" stroke="#B3B3B3" stroke-width="12" stroke-miterlimit="10" x1="575.1" y1="193.6" x2="562.8" y2="193.6"/>
<line id="JT09" fill="none" stroke="#B3B3B3" stroke-width="12" stroke-miterlimit="10" x1="470.9" y1="271.9" x2="458.6" y2="271.9"/>
<line id="JT10" fill="none" stroke="#B3B3B3" stroke-width="12" stroke-miterlimit="10" x1="349.7" y1="291.4" x2="337.4" y2="291.4"/>
<line id="JT11" fill="none" stroke="#B3B3B3" stroke-width="12" stroke-miterlimit="10" x1="223" y1="212.1" x2="210.7" y2="212.1"/>
<text transform="matrix(1 0 0 1 323.303 311.2424)" font-family="'MicrosoftYaHei'" font-size="13.988">急停09</text>
<text transform="matrix(1 0 0 1 188.6467 204.3311)" font-family="'MicrosoftYaHei'" font-size="13.988">急停10</text>
<line id="JT12" fill="none" stroke="#B3B3B3" stroke-width="25" stroke-miterlimit="10" x1="860.3" y1="165.4" x2="890.3" y2="165.4"/>
<text transform="matrix(1 0 0 1 835.7338 141.9687)" enable-background="new    "><tspan x="0" y="0" font-family="'AdobeSongStd-Light-GBpc-EUC-H'" font-size="15.4653">摆轮急停</tspan><tspan x="61.9" y="0" font-family="'ArialMT'" font-size="15.4653">01</tspan></text>
<line id="JT13" fill="none" stroke="#B3B3B3" stroke-width="25" stroke-miterlimit="10" x1="730" y1="165.4" x2="760" y2="165.4"/>
<text transform="matrix(1 0 0 1 705.445 141.9691)" enable-background="new    "><tspan x="0" y="0" font-family="'AdobeSongStd-Light-GBpc-EUC-H'" font-size="15.4653">摆轮急停</tspan><tspan x="61.9" y="0" font-family="'ArialMT'" font-size="15.4653">01</tspan></text>
<line id="JT14" fill="none" stroke="#B3B3B3" stroke-width="25" stroke-miterlimit="10" x1="614.3" y1="165.4" x2="644.3" y2="165.4"/>
<text transform="matrix(1 0 0 1 589.7307 141.9696)" enable-background="new    "><tspan x="0" y="0" font-family="'AdobeSongStd-Light-GBpc-EUC-H'" font-size="15.4653">摆轮急停</tspan><tspan x="61.9" y="0" font-family="'ArialMT'" font-size="15.4653">01</tspan></text>
<line id="JT15" fill="none" stroke="#B3B3B3" stroke-width="25" stroke-miterlimit="10" x1="504.3" y1="165.4" x2="534.3" y2="165.4"/>
<text transform="matrix(1 0 0 1 479.7336 141.9691)" enable-background="new    "><tspan x="0" y="0" font-family="'AdobeSongStd-Light-GBpc-EUC-H'" font-size="15.4653">摆轮急停</tspan><tspan x="61.9" y="0" font-family="'ArialMT'" font-size="15.4653">01</tspan></text>
<line id="JT16" fill="none" stroke="#B3B3B3" stroke-width="25" stroke-miterlimit="10" x1="381.5" y1="165.4" x2="411.5" y2="165.4"/>
<text transform="matrix(1 0 0 1 356.9365 141.97)" enable-background="new    "><tspan x="0" y="0" font-family="'AdobeSongStd-Light-GBpc-EUC-H'" font-size="15.4653">摆轮急停</tspan><tspan x="61.9" y="0" font-family="'ArialMT'" font-size="15.4653">01</tspan></text>
<line id="JT17" fill="none" stroke="#B3B3B3" stroke-width="25" stroke-miterlimit="10" x1="272.5" y1="165.4" x2="302.5" y2="165.4"/>
<text transform="matrix(1 0 0 1 247.9394 141.9691)" enable-background="new    "><tspan x="0" y="0" font-family="'AdobeSongStd-Light-GBpc-EUC-H'" font-size="15.4653">摆轮急停</tspan><tspan x="61.9" y="0" font-family="'ArialMT'" font-size="15.4653">01</tspan></text>
<text id="ZB" transform="matrix(1 0 0 1 1015.2711 97.5802)" font-family="'MicrosoftYaHei'" font-size="61.4223">GD</text>
</svg>
