<?xml version="1.0" encoding="utf-8"?>
<!-- Generator: Adobe Illustrator 18.1.1, SVG Export Plug-In . SVG Version: 6.00 Build 0)  -->
<svg version="1.1" id="图层_1" name="GF" xmlns="http://www.w3.org/2000/svg" xmlns:xlink="http://www.w3.org/1999/xlink" x="0px" y="0px"
	 viewBox="0 0 1190.6 841.9" enable-background="new 0 0 1190.6 841.9" xml:space="preserve">
<line id="GF01" fill="none" stroke="#B3B3B3" stroke-width="20" stroke-miterlimit="10" x1="1158" y1="165.8" x2="1158" y2="354.9"/>
<path id="GF02" fill="none" stroke="#ABABAB" stroke-width="20" stroke-miterlimit="10" d="M1158,356.8c0,16.1-16.5,29.3-36.6,29.3"
	/>
<line id="GF03" fill="none" stroke="#B3B3B3" stroke-width="20" stroke-miterlimit="10" x1="1119.6" y1="386.7" x2="974.3" y2="386.7"/>
<line id="GF04" fill="none" stroke="#B3B3B3" stroke-width="20" stroke-miterlimit="10" x1="973.6" y1="386.7" x2="821.1" y2="386.7"/>
<line id="DJFL01" fill="none" stroke="#B3B3B3" stroke-width="40" stroke-miterlimit="10" x1="517.5" y1="386.7" x2="819.7" y2="386.7"/>
<line id="GF05" fill="none" stroke="#B3B3B3" stroke-width="20" stroke-miterlimit="10" x1="515.5" y1="387.4" x2="399.5" y2="387.4"/>
<line id="GF06" fill="none" stroke="#B3B3B3" stroke-width="20" stroke-miterlimit="10" x1="398.4" y1="387.4" x2="288" y2="387.4"/>
<line id="SCANER01" fill="none" stroke="#B3B3B3" stroke-width="40" stroke-miterlimit="10" x1="287" y1="387.4" x2="232.5" y2="387.4"/>
<line id="GF08" fill="none" stroke="#B3B3B3" stroke-width="20" stroke-miterlimit="10" x1="99.8" y1="386.1" x2="59.8" y2="386.1"/>
<path id="GF09" fill="none" stroke="#ABABAB" stroke-width="20" stroke-miterlimit="10" d="M57.6,385.7c-16.1,0-29.3-16.5-29.3-36.6
	"/>
<line id="GF10" fill="none" stroke="#B3B3B3" stroke-width="20" stroke-miterlimit="10" x1="28.3" y1="209.7" x2="28.3" y2="347.8"/>
<path id="GF11" fill="none" stroke="#ABABAB" stroke-width="20" stroke-miterlimit="10" d="M28.3,208.7c0-16.1,16.5-29.3,36.6-29.3"
	/>
<line id="GF12" fill="none" stroke="#B3B3B3" stroke-width="20" stroke-miterlimit="10" x1="99.8" y1="179.6" x2="67.5" y2="179.6"/>
<line id="BL01" fill="none" stroke="#B3B3B3" stroke-width="30" stroke-miterlimit="10" x1="141.8" y1="179.6" x2="101.8" y2="179.6"/>
<line id="GF13" fill="none" stroke="#B3B3B3" stroke-width="20" stroke-miterlimit="10" x1="247.8" y1="178.3" x2="143" y2="178.3"/>
<line id="BL02" fill="none" stroke="#B3B3B3" stroke-width="30" stroke-miterlimit="10" x1="289.4" y1="179.6" x2="249.4" y2="179.6"/>
<line id="GF14" fill="none" stroke="#B3B3B3" stroke-width="20" stroke-miterlimit="10" x1="396.6" y1="178.7" x2="291.8" y2="178.7"/>
<line id="BL03" fill="none" stroke="#B3B3B3" stroke-width="30" stroke-miterlimit="10" x1="438.1" y1="180" x2="398.2" y2="180"/>
<line id="GF15" fill="none" stroke="#B3B3B3" stroke-width="20" stroke-miterlimit="10" x1="544" y1="179.4" x2="439.2" y2="179.4"/>
<line id="BL04" fill="none" stroke="#B3B3B3" stroke-width="30" stroke-miterlimit="10" x1="585.7" y1="180.7" x2="545.7" y2="180.7"/>
<line id="GF16" fill="none" stroke="#B3B3B3" stroke-width="20" stroke-miterlimit="10" x1="692.6" y1="179.6" x2="587.8" y2="179.6"/>
<line id="BL05" fill="none" stroke="#B3B3B3" stroke-width="30" stroke-miterlimit="10" x1="734.2" y1="180.9" x2="694.2" y2="180.9"/>
<line id="GF17" fill="none" stroke="#B3B3B3" stroke-width="20" stroke-miterlimit="10" x1="841" y1="178.3" x2="736.3" y2="178.3"/>
<text transform="matrix(1 0 0 1 1043.2563 71.5648)" font-family="'MicrosoftYaHei'" font-size="59.965">GF</text>
<text transform="matrix(1 0 0 1 622.165 446.7308)" font-family="'MicrosoftYaHei'" font-size="31.6615">单间分离</text>
<text transform="matrix(1 0 0 1 226.378 453.4525)" font-family="'MicrosoftYaHei'" font-size="31.6615">六面扫</text>
<text transform="matrix(1 0 0 1 1144.8271 268.3402)" font-family="'MicrosoftYaHei'" font-size="23.7432">01</text>
<text transform="matrix(1 0 0 1 1129.3428 387.3744)" font-family="'MicrosoftYaHei'" font-size="23.7432">02</text>
<text transform="matrix(1 0 0 1 1032.7783 396.1156)" font-family="'MicrosoftYaHei'" font-size="23.7432">03</text>
<text transform="matrix(1 0 0 1 887.2607 396.1156)" font-family="'MicrosoftYaHei'" font-size="23.7432">04</text>
<text transform="matrix(1 0 0 1 453.0723 396.1156)" font-family="'MicrosoftYaHei'" font-size="23.7432">09</text>
<text transform="matrix(1 0 0 1 329.7617 396.1156)" font-family="'MicrosoftYaHei'" font-size="23.7432">10</text>
<text transform="matrix(1 0 0 1 64.6651 396.1156)" font-family="'MicrosoftYaHei'" font-size="23.7432">12</text>
<text transform="matrix(1 0 0 1 21.2139 379.5628)" font-family="'MicrosoftYaHei'" font-size="23.7432">13</text>
<text transform="matrix(1 0 0 1 13.0576 275.5208)" font-family="'MicrosoftYaHei'" font-size="23.7432">14</text>
<text transform="matrix(1 0 0 1 22.5342 198.098)" font-family="'MicrosoftYaHei'" font-size="23.7432">15</text>
<text transform="matrix(1 0 0 1 67.4932 187.1214)" font-family="'MicrosoftYaHei'" font-size="23.7432">16</text>
<text transform="matrix(1 0 0 1 178.9785 187.1214)" font-family="'MicrosoftYaHei'" font-size="23.7432">17</text>
<text transform="matrix(1 0 0 1 327.2188 187.1214)" font-family="'MicrosoftYaHei'" font-size="23.7432">18</text>
<text transform="matrix(1 0 0 1 476.2549 187.1214)" font-family="'MicrosoftYaHei'" font-size="23.7432">19</text>
<text transform="matrix(1 0 0 1 623.7002 187.1214)" font-family="'MicrosoftYaHei'" font-size="23.7432">20</text>
<text transform="matrix(1 0 0 1 771.6387 187.1224)" font-family="'MicrosoftYaHei'" font-size="23.7432">21</text>
<line id="JT02" fill="none" stroke="#B3B3B3" stroke-width="25" stroke-miterlimit="10" x1="1155.1" y1="421.4" x2="1124.4" y2="421.4"/>
<line id="JT03" fill="none" stroke="#B3B3B3" stroke-width="25" stroke-miterlimit="10" x1="82.8" y1="327.7" x2="51.9" y2="327.7"/>
<line id="JT09" fill="none" stroke="#B3B3B3" stroke-width="25" stroke-miterlimit="10" x1="82.8" y1="238" x2="52.1" y2="238"/>
<line id="JT10" fill="none" stroke="#B3B3B3" stroke-width="25" stroke-miterlimit="10" x1="183.7" y1="231.4" x2="152.8" y2="231.4"/>
<line id="SEN01" fill="none" stroke="#B3B3B3" stroke-width="10" stroke-miterlimit="10" x1="307.6" y1="343.4" x2="307.6" y2="431.3"/>
<line id="SEN02" fill="none" stroke="#B3B3B3" stroke-width="10" stroke-miterlimit="10" x1="91.1" y1="136.1" x2="91.1" y2="224"/>
<line id="SEN03" fill="none" stroke="#B3B3B3" stroke-width="10" stroke-miterlimit="10" x1="233.8" y1="134" x2="233.8" y2="221.9"/>
<line id="SEN04" fill="none" stroke="#B3B3B3" stroke-width="10" stroke-miterlimit="10" x1="386.7" y1="134" x2="386.7" y2="221.9"/>
<line id="SEN05" fill="none" stroke="#B3B3B3" stroke-width="10" stroke-miterlimit="10" x1="530.8" y1="132.9" x2="530.8" y2="220.8"/>
<line id="SEN06" fill="none" stroke="#B3B3B3" stroke-width="10" stroke-miterlimit="10" x1="679.8" y1="132.9" x2="679.8" y2="220.8"/>
<line id="SEN07" fill="none" stroke="#B3B3B3" stroke-width="10" stroke-miterlimit="10" x1="827.1" y1="134.4" x2="827.1" y2="222.3"/>
<line id="HUACAO01" fill="none" stroke="#B3B3B3" stroke-width="30" stroke-miterlimit="10" x1="121.8" y1="196.5" x2="121.8" y2="271.3"/>
<line id="HUACAO02" fill="none" stroke="#B3B3B3" stroke-width="30" stroke-miterlimit="10" x1="269.5" y1="196.5" x2="269.5" y2="271.3"/>
<line id="HUACAO03" fill="none" stroke="#B3B3B3" stroke-width="30" stroke-miterlimit="10" x1="418.1" y1="196.8" x2="418.1" y2="271.6"/>
<line id="HUACAO04" fill="none" stroke="#B3B3B3" stroke-width="30" stroke-miterlimit="10" x1="565.4" y1="196.9" x2="565.4" y2="271.6"/>
<line id="HUACAO05" fill="none" stroke="#B3B3B3" stroke-width="30" stroke-miterlimit="10" x1="714.1" y1="196.9" x2="714.1" y2="271.6"/>
<line id="GF07" fill="none" stroke="#B3B3B3" stroke-width="20" stroke-miterlimit="10" x1="189.5" y1="386.1" x2="102.1" y2="386.1"/>
<text transform="matrix(1 0 0 1 130.5166 396.1156)" font-family="'MicrosoftYaHei'" font-size="23.7432">11</text>
<line id="RFID01" fill="none" stroke="#B3B3B3" stroke-width="30" stroke-miterlimit="10" x1="230.8" y1="387.4" x2="190.8" y2="387.4"/>
<text transform="matrix(1 0 0 1 143.003 457.0648)" font-family="'MicrosoftYaHei'" font-size="31.6615">RFID</text>
<line id="JT11" fill="none" stroke="#B3B3B3" stroke-width="25" stroke-miterlimit="10" x1="345.2" y1="239.3" x2="314.5" y2="239.3"/>
<line id="JT12" fill="none" stroke="#B3B3B3" stroke-width="25" stroke-miterlimit="10" x1="632.2" y1="239.3" x2="601.4" y2="239.3"/>
<line id="JT04" fill="none" stroke="#B3B3B3" stroke-width="25" stroke-miterlimit="10" x1="183.7" y1="137.7" x2="152.8" y2="137.7"/>
<line id="JT05" fill="none" stroke="#B3B3B3" stroke-width="25" stroke-miterlimit="10" x1="331" y1="139.5" x2="300.2" y2="139.5"/>
<line id="JT06" fill="none" stroke="#B3B3B3" stroke-width="25" stroke-miterlimit="10" x1="475.8" y1="140.7" x2="444.9" y2="140.7"/>
<line id="JT08" fill="none" stroke="#B3B3B3" stroke-width="25" stroke-miterlimit="10" x1="769.2" y1="139.4" x2="738.4" y2="139.4"/>
<line id="JT07" fill="none" stroke="#B3B3B3" stroke-width="25" stroke-miterlimit="10" x1="620.8" y1="140.7" x2="590.1" y2="140.7"/>
<line id="ZX00" fill="none" stroke="#B3B3B3" stroke-width="25" stroke-miterlimit="10" x1="92.3" y1="42.9" x2="68.9" y2="42.9"/>
<line id="FJMODE" fill="none" stroke="#B3B3B3" stroke-width="25" stroke-miterlimit="10" x1="342.9" y1="42.9" x2="319.5" y2="42.9"/>
<line id="BLOCKABLE" fill="none" stroke="#B3B3B3" stroke-width="25" stroke-miterlimit="10" x1="253.6" y1="42.9" x2="230.3" y2="42.9"/>
<line id="SLEEPABLE" fill="none" stroke="#B3B3B3" stroke-width="25" stroke-miterlimit="10" x1="175" y1="42.9" x2="151.6" y2="42.9"/>
<text transform="matrix(1 0 0 1 127.5679 76.5682)" font-family="'MicrosoftYaHei'" font-size="17.996">休眠功能</text>
<text transform="matrix(1 0 0 1 44.583 76.5682)" font-family="'MicrosoftYaHei'" font-size="17.996">整线状态</text>
<text transform="matrix(1 0 0 1 208.3496 76.5682)" font-family="'MicrosoftYaHei'" font-size="17.996">堵塞功能</text>
<text transform="matrix(1 0 0 1 293.3633 76.5682)" font-family="'MicrosoftYaHei'" font-size="17.996">分拣模式</text>
<ellipse id="JT01" fill="none" stroke="#B3B3B3" stroke-width="16" stroke-miterlimit="10" cx="532.4" cy="520.3" rx="7.9" ry="3.6"/>
<ellipse id="BUTTON05" fill="none" stroke="#B3B3B3" stroke-width="16" stroke-miterlimit="10" cx="445.9" cy="520" rx="7.9" ry="3.6"/>
<text transform="matrix(1 0 0 1 386.5596 554.2269)" font-family="'MicrosoftYaHei'" font-size="18.4761">分拣模式按钮</text>
<text transform="matrix(1 0 0 1 510.9278 554.2279)" font-family="'MicrosoftYaHei'" font-size="18.4761">主柜急停01</text>
<line id="BIAODING" fill="none" stroke="#B3B3B3" stroke-width="25" stroke-miterlimit="10" x1="427.8" y1="43.9" x2="404.4" y2="43.9"/>
<text transform="matrix(1 0 0 1 378.9512 76.5682)" font-family="'MicrosoftYaHei'" font-size="17.996">标定模式</text>
<text transform="matrix(1 0 0 1 102.0596 263.8529)" font-family="'MicrosoftYaHei'" font-size="18">滑槽</text>
<text transform="matrix(1 0 0 1 249.3535 263.8529)" font-family="'MicrosoftYaHei'" font-size="18">滑槽</text>
<text transform="matrix(1 0 0 1 396.5147 268.2044)" font-family="'MicrosoftYaHei'" font-size="18">滑槽</text>
<text transform="matrix(1 0 0 1 546.1836 268.2044)" font-family="'MicrosoftYaHei'" font-size="18">滑槽</text>
<text transform="matrix(1 0 0 1 694.1367 268.2044)" font-family="'MicrosoftYaHei'" font-size="18">滑槽</text>
<line id="JT13" fill="none" stroke="#B3B3B3" stroke-width="25" stroke-miterlimit="10" x1="683.9" y1="239.3" x2="653.2" y2="239.3"/>
<text transform="matrix(1 0 0 1 1119.5186 457.0648)" font-family="'MicrosoftYaHei'" font-size="18.4761">急停02</text>
<text transform="matrix(1 0 0 1 52.1035 349.1107)" font-family="'MicrosoftYaHei'" font-size="18.4761">急停03</text>
<text transform="matrix(1 0 0 1 42.9317 275.3304)" font-family="'MicrosoftYaHei'" font-size="18.4761">急停09</text>
<text transform="matrix(1 0 0 1 152.7412 268.3382)" font-family="'MicrosoftYaHei'" font-size="18.4761">急停10</text>
<text transform="matrix(1 0 0 1 142.9746 119.1722)" font-family="'MicrosoftYaHei'" font-size="18.4761">急停04</text>
<text transform="matrix(1 0 0 1 286.9688 119.1712)" font-family="'MicrosoftYaHei'" font-size="18.4761">急停05</text>
<text transform="matrix(1 0 0 1 429.2168 119.1712)" font-family="'MicrosoftYaHei'" font-size="18.4761">急停06</text>
<text transform="matrix(1 0 0 1 574.4053 119.1712)" font-family="'MicrosoftYaHei'" font-size="18.4761">急停07</text>
<text transform="matrix(1 0 0 1 722.2314 119.1712)" font-family="'MicrosoftYaHei'" font-size="18.4761">急停08</text>
<text transform="matrix(1 0 0 1 300.167 275.3294)" font-family="'MicrosoftYaHei'" font-size="18.4761">急停11</text>
<text transform="matrix(1 0 0 1 585.6475 275.3294)" font-family="'MicrosoftYaHei'" font-size="18.4761">急停12</text>
<text transform="matrix(1 0 0 1 632.0928 239.3002)" font-family="'MicrosoftYaHei'" font-size="18.4761">急停13</text>
<text transform="matrix(1 0 0 1 819.6553 127.9027)" font-family="'MicrosoftYaHei'" font-size="18.4761">PH15</text>
<text transform="matrix(1 0 0 1 661.2676 132.9212)" font-family="'MicrosoftYaHei'" font-size="18.4761">PH14</text>
<text transform="matrix(1 0 0 1 510.9278 127.9017)" font-family="'MicrosoftYaHei'" font-size="18.4761">PH13</text>
<text transform="matrix(1 0 0 1 366.9326 127.9017)" font-family="'MicrosoftYaHei'" font-size="18.4761">PH12</text>
<text transform="matrix(1 0 0 1 218.0762 127.9017)" font-family="'MicrosoftYaHei'" font-size="18.4761">PH11</text>
<text transform="matrix(1 0 0 1 67.3057 136.0882)" font-family="'MicrosoftYaHei'" font-size="18.4761">PH10</text>
<text transform="matrix(1 0 0 1 289.3438 343.4359)" font-family="'MicrosoftYaHei'" font-size="18.4761">PH06</text>
<text transform="matrix(1 0 0 1 101.8225 161.7677)" font-family="'MicrosoftYaHei'" font-size="18">摆轮1</text>
<text transform="matrix(1 0 0 1 247.8088 161.7674)" font-family="'MicrosoftYaHei'" font-size="18">摆轮2</text>
<text transform="matrix(1 0 0 1 397.4704 161.7674)" font-family="'MicrosoftYaHei'" font-size="18">摆轮3</text>
<text transform="matrix(1 0 0 1 544.0043 161.7674)" font-family="'MicrosoftYaHei'" font-size="18">摆轮4</text>
<text transform="matrix(1 0 0 1 692.6301 161.7674)" font-family="'MicrosoftYaHei'" font-size="18">摆轮5</text>
</svg>
