<?xml version="1.0" encoding="utf-8"?>
<!-- Generator: Adobe Illustrator 18.1.1, SVG Export Plug-In . SVG Version: 6.00 Build 0)  -->
<svg version="1.1" id="图层_1" xmlns="http://www.w3.org/2000/svg" xmlns:xlink="http://www.w3.org/1999/xlink" x="0px" y="0px"
	 viewBox="0 0 841.9 1190.6" enable-background="new 0 0 841.9 1190.6" xml:space="preserve">
<g id="FA">
	
		<line id="FA01-1" fill="none" stroke="#B4B3B3" stroke-width="20" stroke-miterlimit="10" x1="416.2" y1="755.7" x2="416.2" y2="819.7"/>
	
		<line id="FA02-1" fill="none" stroke="#B4B3B3" stroke-width="20" stroke-miterlimit="10" x1="416.2" y1="690.4" x2="416.2" y2="754.3"/>
	
		<line id="FA03-1" fill="none" stroke="#B4B3B3" stroke-width="20" stroke-miterlimit="10" x1="416.2" y1="624.2" x2="416.2" y2="688.1"/>
	
		<line id="FA04-1" fill="none" stroke="#B4B3B3" stroke-width="20" stroke-miterlimit="10" x1="416.2" y1="591.5" x2="416.2" y2="618.7"/>
	
		<line id="FA05-1" fill="none" stroke="#B4B3B3" stroke-width="20" stroke-miterlimit="10" x1="416.2" y1="528.2" x2="416.2" y2="588.4"/>
	
		<line id="FA06-1" fill="none" stroke="#B4B3B3" stroke-width="20" stroke-miterlimit="10" x1="416.2" y1="463.5" x2="416.2" y2="523.7"/>
	
		<line id="FA07-1" fill="none" stroke="#B4B3B3" stroke-width="20" stroke-miterlimit="10" x1="416.2" y1="399.5" x2="416.2" y2="459.8"/>
	<text transform="matrix(1 0 0 1 400.2363 394.507)" font-family="'MicrosoftYaHei'" font-size="23.999">FA</text>
	<text transform="matrix(0.8524 0 0 1 409.1212 808.6672)" font-family="'MicrosoftYaHei'" font-size="17.4284">01</text>
	<text transform="matrix(0.8524 0 0 1 405.0991 747.1145)" font-family="'MicrosoftYaHei'" font-size="17.4284">02</text>
	<text transform="matrix(0.8524 0 0 1 409.1212 685.7512)" font-family="'MicrosoftYaHei'" font-size="17.4284">03</text>
	<text transform="matrix(0.8524 0 0 1 405.0986 623.5183)" font-family="'MicrosoftYaHei'" font-size="17.4284">04</text>
	<text transform="matrix(0.8524 0 0 1 404.4395 578.5554)" font-family="'MicrosoftYaHei'" font-size="17.4284">05</text>
	<text transform="matrix(0.8524 0 0 1 408.4609 512.3552)" font-family="'MicrosoftYaHei'" font-size="17.4284">06</text>
	<text transform="matrix(0.8524 0 0 1 407.8008 445.7619)" font-family="'MicrosoftYaHei'" font-size="17.4284">07</text>
</g>
</svg>
