<?xml version="1.0" encoding="utf-8"?>
<!-- Generator: Adobe Illustrator 18.1.1, SVG Export Plug-In . SVG Version: 6.00 Build 0)  -->
<svg version="1.1" id="图层_1" xmlns="http://www.w3.org/2000/svg" xmlns:xlink="http://www.w3.org/1999/xlink" x="0px" y="0px"
	 viewBox="0 0 841.9 1190.6" enable-background="new 0 0 841.9 1190.6" xml:space="preserve">
<g id="GB">
	
		<line id="GB01-1" fill="none" stroke="#B4B3B3" stroke-width="20" stroke-miterlimit="10" x1="417.8" y1="758.8" x2="417.8" y2="822.7"/>
	
		<line id="GB02-1" fill="none" stroke="#B4B3B3" stroke-width="20" stroke-miterlimit="10" x1="417.8" y1="693.4" x2="417.8" y2="757.4"/>
	
		<line id="GB03-1" fill="none" stroke="#B4B3B3" stroke-width="20" stroke-miterlimit="10" x1="417.8" y1="627.3" x2="417.8" y2="691.2"/>
	
		<line id="GB04-1" fill="none" stroke="#B4B3B3" stroke-width="20" stroke-miterlimit="10" x1="417.8" y1="594.6" x2="417.8" y2="621.8"/>
	
		<line id="GB05-1" fill="none" stroke="#B4B3B3" stroke-width="20" stroke-miterlimit="10" x1="417.8" y1="531.3" x2="417.8" y2="591.5"/>
	
		<line id="GB06-1" fill="none" stroke="#B4B3B3" stroke-width="20" stroke-miterlimit="10" x1="417.8" y1="466.6" x2="417.8" y2="526.8"/>
	
		<line id="GB07-1" fill="none" stroke="#B4B3B3" stroke-width="20" stroke-miterlimit="10" x1="417.8" y1="402.6" x2="417.8" y2="462.8"/>
	<text transform="matrix(0.8524 0 0 1 410.9966 814.2404)" font-family="'MicrosoftYaHei'" font-size="17.4284">01</text>
	<text transform="matrix(0.8524 0 0 1 407.2925 750.1974)" font-family="'MicrosoftYaHei'" font-size="17.4284">02</text>
	<text transform="matrix(0.8524 0 0 1 407.9009 685.0158)" font-family="'MicrosoftYaHei'" font-size="17.4284">03</text>
	<text transform="matrix(0.8524 0 0 1 408.5098 619.8347)" font-family="'MicrosoftYaHei'" font-size="17.4284">04</text>
	<text transform="matrix(0.8524 0 0 1 407.2925 569.0974)" font-family="'MicrosoftYaHei'" font-size="17.4284">05</text>
	<text transform="matrix(0.8524 0 0 1 410.336 506.8576)" font-family="'MicrosoftYaHei'" font-size="17.4284">06</text>
	<text transform="matrix(0.8524 0 0 1 409.1187 440.2648)" font-family="'MicrosoftYaHei'" font-size="17.4284">07</text>
	<text transform="matrix(1 0 0 1 397.2651 390.9924)" font-family="'MicrosoftYaHei'" font-size="23.999">GB</text>
</g>
</svg>
