<?xml version="1.0" encoding="utf-8"?>
<!-- Generator: Adobe Illustrator 18.1.1, SVG Export Plug-In . SVG Version: 6.00 Build 0)  -->
<svg version="1.1" id="图层_1" xmlns="http://www.w3.org/2000/svg" xmlns:xlink="http://www.w3.org/1999/xlink" x="0px" y="0px"
	 viewBox="0 0 841.9 1190.6" enable-background="new 0 0 841.9 1190.6" xml:space="preserve">
<g id="JC">
	
		<line id="JC01-1" fill="none" stroke="#B4B3B3" stroke-width="20" stroke-miterlimit="10" x1="418.7" y1="761" x2="418.7" y2="825"/>
	
		<line id="JC02-1" fill="none" stroke="#B4B3B3" stroke-width="20" stroke-miterlimit="10" x1="418.7" y1="695.7" x2="418.7" y2="759.6"/>
	
		<line id="JC03-1" fill="none" stroke="#B4B3B3" stroke-width="20" stroke-miterlimit="10" x1="418.7" y1="629.5" x2="418.7" y2="693.5"/>
	
		<line id="JC04-1" fill="none" stroke="#B4B3B3" stroke-width="20" stroke-miterlimit="10" x1="418.7" y1="596.8" x2="418.7" y2="624"/>
	
		<line id="JC05-1" fill="none" stroke="#B4B3B3" stroke-width="20" stroke-miterlimit="10" x1="418.7" y1="533.5" x2="418.7" y2="593.7"/>
	
		<line id="JC06-1" fill="none" stroke="#B4B3B3" stroke-width="20" stroke-miterlimit="10" x1="418.7" y1="468.9" x2="418.7" y2="529.1"/>
	
		<line id="JC07-1" fill="none" stroke="#B4B3B3" stroke-width="20" stroke-miterlimit="10" x1="418.7" y1="404.9" x2="418.7" y2="465.1"/>
	<text transform="matrix(0.8524 0 0 1 412.8257 803.0519)" font-family="'MicrosoftYaHei'" font-size="17.4284">01</text>
	<text transform="matrix(0.8524 0 0 1 408.8032 741.4992)" font-family="'MicrosoftYaHei'" font-size="17.4284">02</text>
	<text transform="matrix(0.8524 0 0 1 412.8247 680.1359)" font-family="'MicrosoftYaHei'" font-size="17.4284">03</text>
	<text transform="matrix(0.8524 0 0 1 408.8032 617.902)" font-family="'MicrosoftYaHei'" font-size="17.4284">04</text>
	<text transform="matrix(0.8524 0 0 1 408.1436 572.9402)" font-family="'MicrosoftYaHei'" font-size="17.4284">05</text>
	<text transform="matrix(0.8524 0 0 1 412.1656 506.7399)" font-family="'MicrosoftYaHei'" font-size="17.4284">06</text>
	<text transform="matrix(0.8524 0 0 1 411.5054 440.1467)" font-family="'MicrosoftYaHei'" font-size="17.4284">07</text>
	<text transform="matrix(1 0 0 1 401.3188 389.1555)" font-family="'MicrosoftYaHei'" font-size="23.999">JC</text>
</g>
</svg>
